{
	"patcher" : 	{
		"fileversion" : 1,
		"appversion" : 		{
			"major" : 8,
			"minor" : 3,
			"revision" : 2,
			"architecture" : "x64",
			"modernui" : 1
		}
,
		"classnamespace" : "box",
		"rect" : [ 364.0, 239.0, 1501.0, 702.0 ],
		"bglocked" : 1,
		"openinpresentation" : 1,
		"default_fontsize" : 12.0,
		"default_fontface" : 0,
		"default_fontname" : "Arial",
		"gridonopen" : 1,
		"gridsize" : [ 15.0, 15.0 ],
		"gridsnaponopen" : 1,
		"objectsnaponopen" : 1,
		"statusbarvisible" : 2,
		"toolbarvisible" : 1,
		"lefttoolbarpinned" : 0,
		"toptoolbarpinned" : 0,
		"righttoolbarpinned" : 0,
		"bottomtoolbarpinned" : 0,
		"toolbars_unpinned_last_save" : 3,
		"tallnewobj" : 0,
		"boxanimatetime" : 200,
		"enablehscroll" : 1,
		"enablevscroll" : 1,
		"devicewidth" : 0.0,
		"description" : "",
		"digest" : "",
		"tags" : "",
		"style" : "",
		"subpatcher_template" : "",
		"assistshowspatchername" : 0,
		"boxes" : [ 			{
				"box" : 				{
					"id" : "obj-67",
					"maxclass" : "newobj",
					"numinlets" : 5,
					"numoutlets" : 5,
					"outlettype" : [ "", "", "", "", "" ],
					"patching_rect" : [ 1156.980305543790109, 860.0, 76.0, 22.0 ],
					"text" : "route 1 2 3 4"
				}

			}
, 			{
				"box" : 				{
					"id" : "obj-63",
					"linecount" : 2,
					"maxclass" : "comment",
					"numinlets" : 1,
					"numoutlets" : 0,
					"patching_rect" : [ 1015.0, 935.363824625810139, 150.0, 34.0 ],
					"text" : "mapping Fighter to change presets"
				}

			}
, 			{
				"box" : 				{
					"id" : "obj-60",
					"maxclass" : "message",
					"numinlets" : 2,
					"numoutlets" : 1,
					"outlettype" : [ "" ],
					"patching_rect" : [ 1223.111111111111086, 1036.0, 29.0, 22.0 ],
					"text" : "9"
				}

			}
, 			{
				"box" : 				{
					"id" : "obj-58",
					"maxclass" : "message",
					"numinlets" : 2,
					"numoutlets" : 1,
					"outlettype" : [ "" ],
					"patching_rect" : [ 1187.222222222222172, 1036.0, 29.0, 22.0 ],
					"text" : "8"
				}

			}
, 			{
				"box" : 				{
					"id" : "obj-56",
					"maxclass" : "message",
					"numinlets" : 2,
					"numoutlets" : 1,
					"outlettype" : [ "" ],
					"patching_rect" : [ 1151.333333333333258, 1036.0, 29.0, 22.0 ],
					"text" : "7"
				}

			}
, 			{
				"box" : 				{
					"id" : "obj-54",
					"maxclass" : "message",
					"numinlets" : 2,
					"numoutlets" : 1,
					"outlettype" : [ "" ],
					"patching_rect" : [ 1115.444444444444343, 1036.0, 29.0, 22.0 ],
					"text" : "6"
				}

			}
, 			{
				"box" : 				{
					"id" : "obj-52",
					"maxclass" : "message",
					"numinlets" : 2,
					"numoutlets" : 1,
					"outlettype" : [ "" ],
					"patching_rect" : [ 1079.555555555555657, 1036.0, 30.0, 22.0 ],
					"text" : "5"
				}

			}
, 			{
				"box" : 				{
					"id" : "obj-48",
					"maxclass" : "message",
					"numinlets" : 2,
					"numoutlets" : 1,
					"outlettype" : [ "" ],
					"patching_rect" : [ 1043.666666666666742, 1036.0, 30.0, 22.0 ],
					"text" : "4"
				}

			}
, 			{
				"box" : 				{
					"id" : "obj-27",
					"maxclass" : "message",
					"numinlets" : 2,
					"numoutlets" : 1,
					"outlettype" : [ "" ],
					"patching_rect" : [ 1007.777777777777828, 1036.0, 29.0, 22.0 ],
					"text" : "3"
				}

			}
, 			{
				"box" : 				{
					"id" : "obj-21",
					"maxclass" : "message",
					"numinlets" : 2,
					"numoutlets" : 1,
					"outlettype" : [ "" ],
					"patching_rect" : [ 971.888888888888914, 1036.0, 29.0, 22.0 ],
					"text" : "2"
				}

			}
, 			{
				"box" : 				{
					"id" : "obj-18",
					"maxclass" : "message",
					"numinlets" : 2,
					"numoutlets" : 1,
					"outlettype" : [ "" ],
					"patching_rect" : [ 936.0, 1036.0, 29.0, 22.0 ],
					"text" : "1"
				}

			}
, 			{
				"box" : 				{
					"id" : "obj-17",
					"maxclass" : "newobj",
					"numinlets" : 2,
					"numoutlets" : 2,
					"outlettype" : [ "", "" ],
					"patching_rect" : [ 962.567810773849487, 941.363824625810139, 47.0, 22.0 ],
					"text" : "zl.nth 2"
				}

			}
, 			{
				"box" : 				{
					"id" : "obj-11",
					"maxclass" : "newobj",
					"numinlets" : 2,
					"numoutlets" : 2,
					"outlettype" : [ "", "" ],
					"patching_rect" : [ 962.567810773849487, 900.0, 46.0, 22.0 ],
					"text" : "route 0"
				}

			}
, 			{
				"box" : 				{
					"id" : "obj-1",
					"maxclass" : "newobj",
					"numinlets" : 10,
					"numoutlets" : 10,
					"outlettype" : [ "", "", "", "", "", "", "", "", "", "" ],
					"patching_rect" : [ 962.567810773849487, 984.0, 186.0, 22.0 ],
					"text" : "route 64 65 66 67 68 69 70 71 72"
				}

			}
, 			{
				"box" : 				{
					"id" : "obj-7",
					"maxclass" : "message",
					"numinlets" : 2,
					"numoutlets" : 1,
					"outlettype" : [ "" ],
					"patching_rect" : [ 1070.579194934417956, 904.300000004885987, 50.0, 22.0 ],
					"text" : "47 0"
				}

			}
, 			{
				"box" : 				{
					"fontsize" : 10.0,
					"id" : "obj-73",
					"maxclass" : "newobj",
					"numinlets" : 1,
					"numoutlets" : 1,
					"outlettype" : [ "" ],
					"patching_rect" : [ 295.78057705735182, 144.166645924250474, 44.0, 20.0 ],
					"text" : "pcontrol"
				}

			}
, 			{
				"box" : 				{
					"id" : "obj-72",
					"maxclass" : "message",
					"numinlets" : 2,
					"numoutlets" : 1,
					"outlettype" : [ "" ],
					"patching_rect" : [ 295.78057705735182, 120.166645924250474, 35.0, 22.0 ],
					"text" : "open"
				}

			}
, 			{
				"box" : 				{
					"color" : [ 0.666666666666667, 0.211764705882353, 0.211764705882353, 1.0 ],
					"id" : "obj-70",
					"maxclass" : "newobj",
					"numinlets" : 1,
					"numoutlets" : 0,
					"patcher" : 					{
						"fileversion" : 1,
						"appversion" : 						{
							"major" : 8,
							"minor" : 3,
							"revision" : 2,
							"architecture" : "x64",
							"modernui" : 1
						}
,
						"classnamespace" : "box",
						"rect" : [ 59.0, 107.0, 496.0, 457.0 ],
						"bglocked" : 0,
						"openinpresentation" : 0,
						"default_fontsize" : 12.0,
						"default_fontface" : 0,
						"default_fontname" : "Arial",
						"gridonopen" : 1,
						"gridsize" : [ 15.0, 15.0 ],
						"gridsnaponopen" : 1,
						"objectsnaponopen" : 1,
						"statusbarvisible" : 2,
						"toolbarvisible" : 1,
						"lefttoolbarpinned" : 0,
						"toptoolbarpinned" : 0,
						"righttoolbarpinned" : 0,
						"bottomtoolbarpinned" : 0,
						"toolbars_unpinned_last_save" : 0,
						"tallnewobj" : 0,
						"boxanimatetime" : 200,
						"enablehscroll" : 1,
						"enablevscroll" : 1,
						"devicewidth" : 0.0,
						"description" : "",
						"digest" : "",
						"tags" : "",
						"style" : "",
						"subpatcher_template" : "",
						"assistshowspatchername" : 0,
						"boxes" : [ 							{
								"box" : 								{
									"id" : "obj-5",
									"linecount" : 5,
									"maxclass" : "comment",
									"numinlets" : 1,
									"numoutlets" : 0,
									"patching_rect" : [ 18.0, 94.0, 144.0, 75.0 ],
									"text" : "Q1Synth CC Reference\n\nCC 1  'Inclination'\nCC 2  'Azimuth'\nCC 3  'Lambda'"
								}

							}
, 							{
								"box" : 								{
									"id" : "obj-4",
									"linecount" : 18,
									"maxclass" : "comment",
									"numinlets" : 1,
									"numoutlets" : 0,
									"patching_rect" : [ 170.0, 173.0, 150.0, 255.0 ],
									"text" : "RIGHT\nCC 21  note\nCC 22  gain\nCC 23  octave\nCC 24  rate\nCC 25  size\nCC 26  overlap\nCC 27 begin\nCC 28 end\nCC 29 modi\nCC 30 harm\nCC 31 depth\nCC 32 reverb\nCC 33 delay\nCC 34 crush\nCC 35 pan\nCC 36 hicut\nCC 37 locut"
								}

							}
, 							{
								"box" : 								{
									"id" : "obj-3",
									"maxclass" : "newobj",
									"numinlets" : 1,
									"numoutlets" : 2,
									"outlettype" : [ "", "" ],
									"patching_rect" : [ 50.0, 55.0, 67.0, 22.0 ],
									"save" : [ "#N", "thispatcher", ";", "#Q", "end", ";" ],
									"text" : "thispatcher"
								}

							}
, 							{
								"box" : 								{
									"comment" : "",
									"id" : "obj-2",
									"index" : 1,
									"maxclass" : "inlet",
									"numinlets" : 0,
									"numoutlets" : 1,
									"outlettype" : [ "" ],
									"patching_rect" : [ 50.0, 16.0, 30.0, 30.0 ]
								}

							}
, 							{
								"box" : 								{
									"id" : "obj-144",
									"linecount" : 23,
									"maxclass" : "comment",
									"numinlets" : 1,
									"numoutlets" : 0,
									"patching_rect" : [ 322.0, 104.0, 150.0, 324.0 ],
									"text" : "Q1Synth CC Reference\n\nCC  38  main attack\nCC  39  main delay\nCC  40  main sustain\nCC  41  main release\nCC  42  filter/mod attack\nCC  43  filter/mod decay\nCC  44  filter/mod sustain\nCC  45  filter/mod release\n\nCC 46 Preset 0\nCC 47 Preset 1\nCC 48 Preset 2\nCC 49 Preset 3\nCC 50 Preset 4\nCC 51 Preset 5\nCC 52 Preset 6\nCC 53 Preset 7\n\nCC  54  Play\nCC  55  Measure\nCC  56  Randomize"
								}

							}
, 							{
								"box" : 								{
									"id" : "obj-143",
									"linecount" : 18,
									"maxclass" : "comment",
									"numinlets" : 1,
									"numoutlets" : 0,
									"patching_rect" : [ 18.0, 173.0, 150.0, 255.0 ],
									"text" : "LEFT\nCC 4  note\nCC 5  gain\nCC 6  octave\nCC 7  rate\nCC 8  size\nCC 9  overlap\nCC 10 begin\nCC 11 end\nCC 12 modi\nCC 13 harm\nCC 14 depth\nCC 15  0° reverb\nCC 16  0° delay\nCC 17  0° crush\nCC 18  0° pan\nCC 19  0° hicut\nCC 20  0° locut"
								}

							}
 ],
						"lines" : [ 							{
								"patchline" : 								{
									"destination" : [ "obj-3", 0 ],
									"source" : [ "obj-2", 0 ]
								}

							}
 ]
					}
,
					"patching_rect" : [ 295.78057705735182, 166.14971216107179, 98.0, 22.0 ],
					"saved_object_attributes" : 					{
						"description" : "",
						"digest" : "",
						"globalpatchername" : "",
						"tags" : ""
					}
,
					"text" : "p CC_Reference"
				}

			}
, 			{
				"box" : 				{
					"id" : "obj-69",
					"maxclass" : "newobj",
					"numinlets" : 1,
					"numoutlets" : 2,
					"outlettype" : [ "", "" ],
					"patching_rect" : [ 928.067810773849487, 672.338687977392965, 67.0, 22.0 ],
					"save" : [ "#N", "thispatcher", ";", "#Q", "end", ";" ],
					"text" : "thispatcher"
				}

			}
, 			{
				"box" : 				{
					"id" : "obj-68",
					"maxclass" : "newobj",
					"numinlets" : 1,
					"numoutlets" : 1,
					"outlettype" : [ "" ],
					"patcher" : 					{
						"fileversion" : 1,
						"appversion" : 						{
							"major" : 8,
							"minor" : 3,
							"revision" : 2,
							"architecture" : "x64",
							"modernui" : 1
						}
,
						"classnamespace" : "box",
						"rect" : [ 59.0, 107.0, 640.0, 480.0 ],
						"bglocked" : 0,
						"openinpresentation" : 0,
						"default_fontsize" : 12.0,
						"default_fontface" : 0,
						"default_fontname" : "Arial",
						"gridonopen" : 1,
						"gridsize" : [ 15.0, 15.0 ],
						"gridsnaponopen" : 1,
						"objectsnaponopen" : 1,
						"statusbarvisible" : 2,
						"toolbarvisible" : 1,
						"lefttoolbarpinned" : 0,
						"toptoolbarpinned" : 0,
						"righttoolbarpinned" : 0,
						"bottomtoolbarpinned" : 0,
						"toolbars_unpinned_last_save" : 0,
						"tallnewobj" : 0,
						"boxanimatetime" : 200,
						"enablehscroll" : 1,
						"enablevscroll" : 1,
						"devicewidth" : 0.0,
						"description" : "",
						"digest" : "",
						"tags" : "",
						"style" : "",
						"subpatcher_template" : "",
						"assistshowspatchername" : 0,
						"boxes" : [ 							{
								"box" : 								{
									"id" : "obj-26",
									"maxclass" : "message",
									"numinlets" : 2,
									"numoutlets" : 1,
									"outlettype" : [ "" ],
									"patching_rect" : [ 111.90374936660146, 107.437156577905171, 395.0, 22.0 ],
									"text" : "store[1] store[2] store[3] store[4] store[5] store[6] store[7] store[8] store[9]"
								}

							}
, 							{
								"box" : 								{
									"id" : "obj-17",
									"maxclass" : "toggle",
									"numinlets" : 1,
									"numoutlets" : 1,
									"outlettype" : [ "int" ],
									"parameter_enable" : 0,
									"patching_rect" : [ 67.5, 82.537145813306324, 24.0, 24.0 ]
								}

							}
, 							{
								"box" : 								{
									"id" : "obj-51",
									"maxclass" : "newobj",
									"numinlets" : 2,
									"numoutlets" : 1,
									"outlettype" : [ "int" ],
									"patching_rect" : [ 67.5, 194.303795456886633, 29.5, 22.0 ],
									"text" : "+ 1"
								}

							}
, 							{
								"box" : 								{
									"id" : "obj-52",
									"maxclass" : "newobj",
									"numinlets" : 1,
									"numoutlets" : 2,
									"outlettype" : [ "bang", "int" ],
									"patching_rect" : [ 67.5, 162.437156577905171, 29.5, 22.0 ],
									"text" : "t b i"
								}

							}
, 							{
								"box" : 								{
									"id" : "obj-53",
									"maxclass" : "newobj",
									"numinlets" : 1,
									"numoutlets" : 1,
									"outlettype" : [ "" ],
									"patching_rect" : [ 123.819003482659809, 189.003812789917447, 25.0, 22.0 ],
									"text" : "iter"
								}

							}
, 							{
								"box" : 								{
									"id" : "obj-18",
									"maxclass" : "newobj",
									"numinlets" : 2,
									"numoutlets" : 2,
									"outlettype" : [ "", "" ],
									"patching_rect" : [ 167.819003482659809, 189.003812789917447, 42.0, 22.0 ],
									"text" : "gate 2"
								}

							}
, 							{
								"box" : 								{
									"id" : "obj-20",
									"maxclass" : "message",
									"numinlets" : 2,
									"numoutlets" : 1,
									"outlettype" : [ "" ],
									"patching_rect" : [ 50.0, 238.303833007812727, 121.0, 22.0 ],
									"text" : "script sendtoback $1"
								}

							}
, 							{
								"box" : 								{
									"id" : "obj-56",
									"maxclass" : "message",
									"numinlets" : 2,
									"numoutlets" : 1,
									"outlettype" : [ "" ],
									"patching_rect" : [ 184.770787759373661, 238.303833007812727, 118.0, 22.0 ],
									"text" : "script bringtofront $1"
								}

							}
, 							{
								"box" : 								{
									"comment" : "",
									"id" : "obj-21",
									"index" : 1,
									"maxclass" : "outlet",
									"numinlets" : 1,
									"numoutlets" : 0,
									"patching_rect" : [ 50.0, 278.803833007812727, 30.0, 30.0 ]
								}

							}
, 							{
								"box" : 								{
									"comment" : "",
									"id" : "obj-67",
									"index" : 1,
									"maxclass" : "inlet",
									"numinlets" : 0,
									"numoutlets" : 1,
									"outlettype" : [ "" ],
									"patching_rect" : [ 67.5, 40.000000007812446, 30.0, 30.0 ]
								}

							}
 ],
						"lines" : [ 							{
								"patchline" : 								{
									"destination" : [ "obj-52", 0 ],
									"midpoints" : [ 77.0, 153.303833007812386, 77.0, 153.303833007812386 ],
									"source" : [ "obj-17", 0 ]
								}

							}
, 							{
								"patchline" : 								{
									"destination" : [ "obj-20", 0 ],
									"midpoints" : [ 177.319003482659809, 223.3038330078125, 59.5, 223.3038330078125 ],
									"source" : [ "obj-18", 0 ]
								}

							}
, 							{
								"patchline" : 								{
									"destination" : [ "obj-56", 0 ],
									"midpoints" : [ 200.319003482659809, 223.3038330078125, 194.270787759373661, 223.3038330078125 ],
									"source" : [ "obj-18", 1 ]
								}

							}
, 							{
								"patchline" : 								{
									"destination" : [ "obj-21", 0 ],
									"midpoints" : [ 59.5, 262.3038330078125, 59.5, 262.3038330078125 ],
									"source" : [ "obj-20", 0 ]
								}

							}
, 							{
								"patchline" : 								{
									"destination" : [ "obj-53", 0 ],
									"source" : [ "obj-26", 0 ]
								}

							}
, 							{
								"patchline" : 								{
									"destination" : [ "obj-18", 0 ],
									"midpoints" : [ 77.0, 223.303833007812386, 177.319003482659809, 223.303833007812386 ],
									"source" : [ "obj-51", 0 ]
								}

							}
, 							{
								"patchline" : 								{
									"destination" : [ "obj-26", 0 ],
									"midpoints" : [ 77.0, 186.0, 96.0, 186.0, 96.0, 102.0, 121.40374936660146, 102.0 ],
									"source" : [ "obj-52", 0 ]
								}

							}
, 							{
								"patchline" : 								{
									"destination" : [ "obj-51", 0 ],
									"midpoints" : [ 87.5, 210.303833007812386, 77.0, 210.303833007812386 ],
									"source" : [ "obj-52", 1 ]
								}

							}
, 							{
								"patchline" : 								{
									"destination" : [ "obj-18", 1 ],
									"midpoints" : [ 133.319003482659809, 218.003812789917447, 200.319003482659809, 218.003812789917447 ],
									"source" : [ "obj-53", 0 ]
								}

							}
, 							{
								"patchline" : 								{
									"destination" : [ "obj-21", 0 ],
									"midpoints" : [ 194.270787759373661, 274.3038330078125, 59.5, 274.3038330078125 ],
									"source" : [ "obj-56", 0 ]
								}

							}
, 							{
								"patchline" : 								{
									"destination" : [ "obj-17", 0 ],
									"source" : [ "obj-67", 0 ]
								}

							}
 ]
					}
,
					"patching_rect" : [ 928.067810773849487, 640.916189997458332, 155.0, 22.0 ],
					"saved_object_attributes" : 					{
						"description" : "",
						"digest" : "",
						"globalpatchername" : "",
						"tags" : ""
					}
,
					"text" : "p hide_show_store_buttons"
				}

			}
, 			{
				"box" : 				{
					"id" : "obj-64",
					"maxclass" : "message",
					"numinlets" : 2,
					"numoutlets" : 1,
					"outlettype" : [ "" ],
					"patching_rect" : [ 1105.980305543790109, 556.888992357534107, 35.0, 22.0 ],
					"text" : "clear"
				}

			}
, 			{
				"box" : 				{
					"id" : "obj-61",
					"maxclass" : "message",
					"numinlets" : 2,
					"numoutlets" : 1,
					"outlettype" : [ "" ],
					"patching_rect" : [ 36.089637471274273, 209.43109715978278, 35.0, 22.0 ],
					"text" : "open"
				}

			}
, 			{
				"box" : 				{
					"id" : "obj-45",
					"maxclass" : "newobj",
					"numinlets" : 0,
					"numoutlets" : 1,
					"outlettype" : [ "" ],
					"patching_rect" : [ 180.242179823950664, 483.041229019562479, 67.0, 22.0 ],
					"text" : "r outdevice"
				}

			}
, 			{
				"box" : 				{
					"id" : "obj-46",
					"maxclass" : "newobj",
					"numinlets" : 1,
					"numoutlets" : 3,
					"outlettype" : [ "", "", "" ],
					"patching_rect" : [ 254.089637471274273, 479.651398430268046, 51.0, 22.0 ],
					"text" : "unjoin 2"
				}

			}
, 			{
				"box" : 				{
					"id" : "obj-47",
					"maxclass" : "newobj",
					"numinlets" : 3,
					"numoutlets" : 0,
					"patching_rect" : [ 254.089637471274273, 511.651398430268046, 40.0, 22.0 ],
					"text" : "ctlout"
				}

			}
, 			{
				"box" : 				{
					"id" : "obj-44",
					"maxclass" : "newobj",
					"numinlets" : 1,
					"numoutlets" : 1,
					"outlettype" : [ "" ],
					"patching_rect" : [ 1014.245866160839569, 183.199995160102617, 53.0, 22.0 ],
					"text" : "v midin2"
				}

			}
, 			{
				"box" : 				{
					"id" : "obj-41",
					"maxclass" : "newobj",
					"numinlets" : 1,
					"numoutlets" : 0,
					"patching_rect" : [ 109.663949128062995, 107.93328317006501, 64.0, 22.0 ],
					"text" : "s ring_tggl"
				}

			}
, 			{
				"box" : 				{
					"id" : "obj-31",
					"maxclass" : "message",
					"numinlets" : 2,
					"numoutlets" : 1,
					"outlettype" : [ "" ],
					"patching_rect" : [ 1211.221891645342112, 538.735688734334644, 63.0, 22.0 ],
					"text" : "writeagain"
				}

			}
, 			{
				"box" : 				{
					"bgcolor" : [ 0.16078431372549, 0.16078431372549, 0.16078431372549, 1.0 ],
					"fontlink" : 1,
					"fontname" : "Consolas",
					"fontsize" : 11.0,
					"id" : "obj-23",
					"maxclass" : "textbutton",
					"numinlets" : 1,
					"numoutlets" : 3,
					"outlettype" : [ "", "", "int" ],
					"outputmode" : 0,
					"parameter_enable" : 0,
					"patching_rect" : [ 1211.221891645342112, 504.735688734334872, 70.4306640625, 20.8798828125 ],
					"presentation" : 1,
					"presentation_rect" : [ 1222.642412447897868, 483.888281324251238, 70.4306640625, 20.8798828125 ],
					"text" : "Save File",
					"textcolor" : [ 0.815686274509804, 0.815686274509804, 0.815686274509804, 1.0 ],
					"texton" : "Save File",
					"textoncolor" : [ 0.815686274509804, 0.815686274509804, 0.815686274509804, 1.0 ]
				}

			}
, 			{
				"box" : 				{
					"fontname" : "Consolas",
					"fontsize" : 11.0,
					"id" : "obj-164",
					"maxclass" : "textbutton",
					"numinlets" : 1,
					"numoutlets" : 3,
					"outlettype" : [ "", "", "int" ],
					"outputmode" : 0,
					"parameter_enable" : 0,
					"patching_rect" : [ 1295.197473969607245, 497.274826058032204, 52.662440729204263, 19.965986251831055 ],
					"presentation" : 1,
					"presentation_rect" : [ 1295.073076510397868, 483.888281324251238, 52.662440729204263, 19.965986251831055 ],
					"text" : "Refresh",
					"textcolor" : [ 0.815686274509804, 0.815686274509804, 0.815686274509804, 1.0 ],
					"texton" : "Refresh",
					"textoncolor" : [ 0.815686274509804, 0.815686274509804, 0.815686274509804, 1.0 ]
				}

			}
, 			{
				"box" : 				{
					"id" : "obj-155",
					"maxclass" : "message",
					"numinlets" : 2,
					"numoutlets" : 1,
					"outlettype" : [ "" ],
					"patching_rect" : [ 1392.824154757830001, 581.335292412954232, 34.0, 22.0 ],
					"text" : "write"
				}

			}
, 			{
				"box" : 				{
					"bgcolor" : [ 0.231372549019608, 0.231372549019608, 0.231372549019608, 1.0 ],
					"fontlink" : 1,
					"fontname" : "Consolas",
					"fontsize" : 11.0,
					"id" : "obj-151",
					"legacytextcolor" : 1,
					"maxclass" : "textbutton",
					"numinlets" : 1,
					"numoutlets" : 3,
					"outlettype" : [ "", "", "int" ],
					"outputmode" : 0,
					"parameter_enable" : 0,
					"patching_rect" : [ 1353.358235231290337, 497.274826058032204, 94.6220703125, 20.8798828125 ],
					"presentation" : 1,
					"presentation_rect" : [ 1349.735517239602132, 483.888281324251238, 94.6220703125, 20.8798828125 ],
					"text" : "Save New File",
					"textcolor" : [ 0.815686274509804, 0.815686274509804, 0.815686274509804, 1.0 ],
					"texton" : "Save New File",
					"textoncolor" : [ 0.815686274509804, 0.815686274509804, 0.815686274509804, 1.0 ]
				}

			}
, 			{
				"box" : 				{
					"id" : "obj-140",
					"maxclass" : "newobj",
					"numinlets" : 1,
					"numoutlets" : 1,
					"outlettype" : [ "" ],
					"patching_rect" : [ 1302.345822920341561, 581.335292412954232, 83.248339659836347, 22.0 ],
					"text" : "prepend read"
				}

			}
, 			{
				"box" : 				{
					"id" : "obj-110",
					"items" : [ "q1synthMIDIcustomMapping.json", ",", "q1synthMIDImapping.json" ],
					"maxclass" : "umenu",
					"numinlets" : 1,
					"numoutlets" : 3,
					"outlettype" : [ "int", "", "" ],
					"parameter_enable" : 0,
					"patching_rect" : [ 1295.197473969607245, 551.625150847715304, 131.626680788222757, 22.0 ],
					"presentation" : 1,
					"presentation_rect" : [ 1222.642412447897868, 516.56665106835726, 221.715175104204263, 22.0 ],
					"textcolor" : [ 0.815686274509804, 0.815686274509804, 0.815686274509804, 1.0 ]
				}

			}
, 			{
				"box" : 				{
					"id" : "obj-105",
					"maxclass" : "newobj",
					"numinlets" : 1,
					"numoutlets" : 1,
					"outlettype" : [ "" ],
					"patcher" : 					{
						"fileversion" : 1,
						"appversion" : 						{
							"major" : 8,
							"minor" : 3,
							"revision" : 2,
							"architecture" : "x64",
							"modernui" : 1
						}
,
						"classnamespace" : "box",
						"rect" : [ 59.0, 107.0, 640.0, 480.0 ],
						"bglocked" : 0,
						"openinpresentation" : 0,
						"default_fontsize" : 12.0,
						"default_fontface" : 0,
						"default_fontname" : "Arial",
						"gridonopen" : 1,
						"gridsize" : [ 15.0, 15.0 ],
						"gridsnaponopen" : 1,
						"objectsnaponopen" : 1,
						"statusbarvisible" : 2,
						"toolbarvisible" : 1,
						"lefttoolbarpinned" : 0,
						"toptoolbarpinned" : 0,
						"righttoolbarpinned" : 0,
						"bottomtoolbarpinned" : 0,
						"toolbars_unpinned_last_save" : 0,
						"tallnewobj" : 0,
						"boxanimatetime" : 200,
						"enablehscroll" : 1,
						"enablevscroll" : 1,
						"devicewidth" : 0.0,
						"description" : "",
						"digest" : "",
						"tags" : "",
						"style" : "",
						"subpatcher_template" : "",
						"assistshowspatchername" : 0,
						"boxes" : [ 							{
								"box" : 								{
									"id" : "obj-79",
									"maxclass" : "message",
									"numinlets" : 2,
									"numoutlets" : 1,
									"outlettype" : [ "" ],
									"patching_rect" : [ 143.057825028896332, 223.300852392280603, 35.0, 22.0 ],
									"text" : "clear"
								}

							}
, 							{
								"box" : 								{
									"id" : "obj-61",
									"maxclass" : "newobj",
									"numinlets" : 1,
									"numoutlets" : 1,
									"outlettype" : [ "" ],
									"patching_rect" : [ 170.557825028896332, 291.347696304321289, 96.0, 22.0 ],
									"text" : "prepend append"
								}

							}
, 							{
								"box" : 								{
									"id" : "obj-203",
									"maxclass" : "newobj",
									"numinlets" : 1,
									"numoutlets" : 5,
									"outlettype" : [ "", "", "", "", "" ],
									"patching_rect" : [ 98.057825028896332, 254.783845518196131, 91.0, 22.0 ],
									"text" : "regexp [^!]*json"
								}

							}
, 							{
								"box" : 								{
									"id" : "obj-201",
									"maxclass" : "newobj",
									"numinlets" : 3,
									"numoutlets" : 3,
									"outlettype" : [ "", "", "" ],
									"patching_rect" : [ 98.057825028896332, 192.525340769851709, 109.0, 22.0 ],
									"text" : "route append clear"
								}

							}
, 							{
								"box" : 								{
									"id" : "obj-198",
									"maxclass" : "newobj",
									"numinlets" : 1,
									"numoutlets" : 2,
									"outlettype" : [ "", "int" ],
									"patching_rect" : [ 98.0, 163.872277353370691, 39.0, 22.0 ],
									"text" : "folder"
								}

							}
, 							{
								"box" : 								{
									"id" : "obj-187",
									"maxclass" : "message",
									"numinlets" : 2,
									"numoutlets" : 1,
									"outlettype" : [ "" ],
									"patching_rect" : [ 50.0, 100.0, 32.0, 22.0 ],
									"text" : "path"
								}

							}
, 							{
								"box" : 								{
									"id" : "obj-185",
									"maxclass" : "newobj",
									"numinlets" : 1,
									"numoutlets" : 2,
									"outlettype" : [ "", "" ],
									"patching_rect" : [ 50.0, 130.538943741882349, 67.0, 22.0 ],
									"save" : [ "#N", "thispatcher", ";", "#Q", "end", ";" ],
									"text" : "thispatcher"
								}

							}
, 							{
								"box" : 								{
									"id" : "obj-184",
									"maxclass" : "newobj",
									"numinlets" : 1,
									"numoutlets" : 1,
									"outlettype" : [ "" ],
									"patching_rect" : [ 136.833334863185883, 130.538943741882349, 127.0, 22.0 ],
									"text" : "loadmess types JSON"
								}

							}
, 							{
								"box" : 								{
									"comment" : "",
									"id" : "obj-93",
									"index" : 1,
									"maxclass" : "inlet",
									"numinlets" : 0,
									"numoutlets" : 1,
									"outlettype" : [ "" ],
									"patching_rect" : [ 49.999992001258875, 40.000021599838306, 30.0, 30.0 ]
								}

							}
, 							{
								"box" : 								{
									"comment" : "",
									"id" : "obj-94",
									"index" : 1,
									"maxclass" : "outlet",
									"numinlets" : 1,
									"numoutlets" : 0,
									"patching_rect" : [ 150.807853001258877, 373.347677599838335, 30.0, 30.0 ]
								}

							}
 ],
						"lines" : [ 							{
								"patchline" : 								{
									"destination" : [ "obj-198", 0 ],
									"source" : [ "obj-184", 0 ]
								}

							}
, 							{
								"patchline" : 								{
									"destination" : [ "obj-198", 0 ],
									"source" : [ "obj-185", 1 ]
								}

							}
, 							{
								"patchline" : 								{
									"destination" : [ "obj-185", 0 ],
									"source" : [ "obj-187", 0 ]
								}

							}
, 							{
								"patchline" : 								{
									"destination" : [ "obj-201", 0 ],
									"source" : [ "obj-198", 0 ]
								}

							}
, 							{
								"patchline" : 								{
									"destination" : [ "obj-203", 0 ],
									"source" : [ "obj-201", 0 ]
								}

							}
, 							{
								"patchline" : 								{
									"destination" : [ "obj-79", 0 ],
									"source" : [ "obj-201", 1 ]
								}

							}
, 							{
								"patchline" : 								{
									"destination" : [ "obj-61", 0 ],
									"source" : [ "obj-203", 2 ]
								}

							}
, 							{
								"patchline" : 								{
									"destination" : [ "obj-94", 0 ],
									"source" : [ "obj-61", 0 ]
								}

							}
, 							{
								"patchline" : 								{
									"destination" : [ "obj-94", 0 ],
									"source" : [ "obj-79", 0 ]
								}

							}
, 							{
								"patchline" : 								{
									"destination" : [ "obj-187", 0 ],
									"source" : [ "obj-93", 0 ]
								}

							}
 ]
					}
,
					"patching_rect" : [ 1295.197473969607245, 524.414266753477023, 87.0, 22.0 ],
					"saved_object_attributes" : 					{
						"description" : "",
						"digest" : "",
						"globalpatchername" : "",
						"tags" : ""
					}
,
					"text" : "p load_presets"
				}

			}
, 			{
				"box" : 				{
					"angle" : 270.0,
					"bgcolor" : [ 0.231372549019608, 0.231372549019608, 0.231372549019608, 1.0 ],
					"bordercolor" : [ 0.231372549019608, 0.231372549019608, 0.231372549019608, 1.0 ],
					"id" : "obj-30",
					"maxclass" : "panel",
					"mode" : 0,
					"numinlets" : 1,
					"numoutlets" : 0,
					"patching_rect" : [ 1105.980305543790109, 454.629096754672219, 70.0, 12.257601201534271 ],
					"presentation" : 1,
					"presentation_rect" : [ 1260.500000000000227, 382.650004208087694, 146.0, 86.0 ],
					"proportion" : 0.5
				}

			}
, 			{
				"box" : 				{
					"id" : "obj-50",
					"maxclass" : "newobj",
					"numinlets" : 0,
					"numoutlets" : 1,
					"outlettype" : [ "" ],
					"patching_rect" : [ 928.067810773849487, 612.724521677891062, 86.0, 22.0 ],
					"text" : "r preset_mode"
				}

			}
, 			{
				"box" : 				{
					"id" : "obj-12",
					"maxclass" : "newobj",
					"numinlets" : 1,
					"numoutlets" : 1,
					"outlettype" : [ "bang" ],
					"patching_rect" : [ 1286.067810773849487, 436.429070898177315, 58.0, 22.0 ],
					"text" : "loadbang"
				}

			}
, 			{
				"box" : 				{
					"id" : "obj-10",
					"maxclass" : "message",
					"numinlets" : 2,
					"numoutlets" : 1,
					"outlettype" : [ "" ],
					"patching_rect" : [ 1278.067810773849487, 466.295747328084644, 189.0, 22.0 ],
					"text" : "pattrstorage q1synthMIDImapping"
				}

			}
, 			{
				"box" : 				{
					"active1" : [ 0.290196078431373, 0.850980392156863, 0.670588235294118, 1.0 ],
					"bgcolor" : [ 0.815686274509804, 0.815686274509804, 0.815686274509804, 1.0 ],
					"bubblesize" : 40,
					"emptycolor" : [ 0.16078431372549, 0.16078431372549, 0.16078431372549, 1.0 ],
					"id" : "obj-5",
					"maxclass" : "preset",
					"numinlets" : 1,
					"numoutlets" : 5,
					"outlettype" : [ "preset", "int", "preset", "int", "" ],
					"patching_rect" : [ 1342.970751239725814, 778.4225267709935, 140.503986854106415, 143.5774732290065 ],
					"pattrstorage" : "q1synthMIDImapping",
					"presentation" : 1,
					"presentation_rect" : [ 1265.568359375000455, 234.650004208087694, 136.0, 136.0 ],
					"stored1" : [ 0.231372549019608, 0.231372549019608, 0.231372549019608, 1.0 ]
				}

			}
, 			{
				"box" : 				{
					"id" : "obj-103",
					"maxclass" : "message",
					"numinlets" : 2,
					"numoutlets" : 1,
					"outlettype" : [ "" ],
					"patching_rect" : [ 559.957480733233524, 581.335292412954232, 35.0, 22.0 ],
					"text" : "open"
				}

			}
, 			{
				"box" : 				{
					"id" : "obj-99",
					"maxclass" : "message",
					"numinlets" : 2,
					"numoutlets" : 1,
					"outlettype" : [ "" ],
					"patching_rect" : [ 559.957480733233524, 209.43109715978278, 35.0, 22.0 ],
					"text" : "open"
				}

			}
, 			{
				"box" : 				{
					"id" : "obj-96",
					"maxclass" : "message",
					"numinlets" : 2,
					"numoutlets" : 1,
					"outlettype" : [ "" ],
					"patching_rect" : [ 41.981940421674608, 819.642361998558044, 35.0, 22.0 ],
					"text" : "open"
				}

			}
, 			{
				"box" : 				{
					"bgmode" : 0,
					"border" : 0,
					"clickthrough" : 0,
					"enablehscroll" : 0,
					"enablevscroll" : 0,
					"id" : "obj-94",
					"lockeddragscroll" : 0,
					"lockedsize" : 0,
					"maxclass" : "bpatcher",
					"name" : "playstopBangs.maxpat",
					"numinlets" : 1,
					"numoutlets" : 1,
					"offset" : [ 0.0, 0.0 ],
					"outlettype" : [ "" ],
					"patching_rect" : [ 45.013762848540409, 843.511263390382624, 487.322042465209961, 87.88079329331697 ],
					"presentation" : 1,
					"presentation_rect" : [ 590.904095236212243, 472.853114779027123, 495.0, 128.0 ],
					"varname" : "playstopBangs",
					"viewvisibility" : 1
				}

			}
, 			{
				"box" : 				{
					"id" : "obj-93",
					"maxclass" : "message",
					"numinlets" : 2,
					"numoutlets" : 1,
					"outlettype" : [ "" ],
					"patching_rect" : [ 45.013762848540409, 514.406468524652269, 35.0, 22.0 ],
					"text" : "open"
				}

			}
, 			{
				"box" : 				{
					"bgmode" : 0,
					"border" : 0,
					"clickthrough" : 0,
					"enablehscroll" : 0,
					"enablevscroll" : 0,
					"id" : "obj-91",
					"lockeddragscroll" : 0,
					"lockedsize" : 0,
					"maxclass" : "bpatcher",
					"name" : "presetBangs.maxpat",
					"numinlets" : 1,
					"numoutlets" : 1,
					"offset" : [ 0.0, 0.0 ],
					"outlettype" : [ "" ],
					"patching_rect" : [ 45.013762848540409, 545.106478287892969, 436.101314808995994, 250.0 ],
					"presentation" : 1,
					"presentation_rect" : [ 25.0, 439.066629926364044, 473.101314808995994, 256.0 ],
					"varname" : "presetBangs",
					"viewvisibility" : 1
				}

			}
, 			{
				"box" : 				{
					"id" : "obj-89",
					"maxclass" : "message",
					"numinlets" : 2,
					"numoutlets" : 1,
					"outlettype" : [ "" ],
					"patching_rect" : [ 933.355555100987658, 210.036671419938784, 35.0, 22.0 ],
					"text" : "open"
				}

			}
, 			{
				"box" : 				{
					"bgmode" : 0,
					"border" : 0,
					"clickthrough" : 0,
					"enablehscroll" : 0,
					"enablevscroll" : 0,
					"id" : "obj-87",
					"lockeddragscroll" : 0,
					"lockedsize" : 0,
					"maxclass" : "bpatcher",
					"name" : "sphereFaders.maxpat",
					"numinlets" : 1,
					"numoutlets" : 1,
					"offset" : [ 0.0, 0.0 ],
					"outlettype" : [ "" ],
					"patching_rect" : [ 933.355555100987658, 240.203329622745969, 491.0, 169.0 ],
					"presentation" : 1,
					"presentation_rect" : [ 11.0, 312.38956748162434, 491.0, 169.0 ],
					"varname" : "sphereFaders",
					"viewvisibility" : 1
				}

			}
, 			{
				"box" : 				{
					"id" : "obj-86",
					"maxclass" : "message",
					"numinlets" : 2,
					"numoutlets" : 1,
					"outlettype" : [ "" ],
					"patching_rect" : [ 559.957480733233524, 798.685853977998249, 35.0, 22.0 ],
					"text" : "open"
				}

			}
, 			{
				"box" : 				{
					"bgmode" : 0,
					"border" : 0,
					"clickthrough" : 0,
					"enablehscroll" : 0,
					"enablevscroll" : 0,
					"id" : "obj-83",
					"lockeddragscroll" : 0,
					"lockedsize" : 0,
					"maxclass" : "bpatcher",
					"name" : "adsrFaders.maxpat",
					"numinlets" : 1,
					"numoutlets" : 1,
					"offset" : [ -48.0, -48.0 ],
					"outlettype" : [ "" ],
					"patching_rect" : [ 559.957480733233524, 826.181895116965279, 300.033290465672849, 108.599992156028748 ],
					"presentation" : 1,
					"presentation_rect" : [ 526.666671435038211, 575.56665106835726, 628.666671435038438, 99.733343954428506 ],
					"varname" : "adsrFaders",
					"viewvisibility" : 1
				}

			}
, 			{
				"box" : 				{
					"id" : "obj-81",
					"maxclass" : "message",
					"numinlets" : 2,
					"numoutlets" : 1,
					"outlettype" : [ "" ],
					"patching_rect" : [ 559.957480733233524, 419.730486065149478, 35.0, 22.0 ],
					"text" : "open"
				}

			}
, 			{
				"box" : 				{
					"id" : "obj-9",
					"maxclass" : "newobj",
					"numinlets" : 1,
					"numoutlets" : 0,
					"patching_rect" : [ 276.131640732288361, 72.693764130274644, 88.0, 22.0 ],
					"text" : "s preset_mode"
				}

			}
, 			{
				"box" : 				{
					"bgcolor" : [ 0.16078431372549, 0.16078431372549, 0.16078431372549, 1.0 ],
					"bgoncolor" : [ 0.290196078431373, 0.850980392156863, 0.670588235294118, 1.0 ],
					"fontname" : "Consolas",
					"fontsize" : 18.0,
					"id" : "obj-2",
					"maxclass" : "textbutton",
					"mode" : 1,
					"numinlets" : 1,
					"numoutlets" : 3,
					"outlettype" : [ "", "", "int" ],
					"parameter_enable" : 0,
					"patching_rect" : [ 276.131640732288361, 36.066645304362169, 194.13671875, 29.076171875 ],
					"presentation" : 1,
					"presentation_rect" : [ 1236.500000000000455, 186.049990236759299, 194.13671875, 29.076171875 ],
					"text" : "Edit Input Mapping",
					"textcolor" : [ 0.815686274509804, 0.815686274509804, 0.815686274509804, 1.0 ],
					"texton" : "Edit Input Mapping",
					"textoncolor" : [ 0.850980392156863, 0.290196078431373, 0.470588235294118, 1.0 ],
					"usebgoncolor" : 1
				}

			}
, 			{
				"box" : 				{
					"bgmode" : 0,
					"border" : 0,
					"clickthrough" : 0,
					"enablehscroll" : 0,
					"enablevscroll" : 0,
					"id" : "obj-35",
					"lockeddragscroll" : 0,
					"lockedsize" : 0,
					"maxclass" : "bpatcher",
					"name" : "effectFaders.maxpat",
					"numinlets" : 1,
					"numoutlets" : 1,
					"offset" : [ -43.0, -40.0 ],
					"outlettype" : [ "" ],
					"patching_rect" : [ 559.957480733233524, 605.335292412954118, 315.000000000000057, 177.0 ],
					"presentation" : 1,
					"presentation_rect" : [ 533.0, 312.38956748162434, 669.0, 184.0 ],
					"varname" : "effectFaders",
					"viewvisibility" : 1
				}

			}
, 			{
				"box" : 				{
					"bgfillcolor_angle" : 270.0,
					"bgfillcolor_autogradient" : 0.0,
					"bgfillcolor_color" : [ 0.16078431372549, 0.16078431372549, 0.16078431372549, 1.0 ],
					"bgfillcolor_color1" : [ 0.16078431372549, 0.16078431372549, 0.16078431372549, 1.0 ],
					"bgfillcolor_color2" : [ 0.2, 0.2, 0.2, 1.0 ],
					"bgfillcolor_proportion" : 0.5,
					"bgfillcolor_type" : "gradient",
					"fontsize" : 20.0,
					"id" : "obj-25",
					"items" : [ "fm", ",", "granular", ",", "subtractive" ],
					"maxclass" : "umenu",
					"numinlets" : 1,
					"numoutlets" : 3,
					"outlettype" : [ "int", "", "" ],
					"parameter_enable" : 0,
					"patching_rect" : [ 804.045792292803526, 415.230486065149478, 100.0, 31.0 ],
					"presentation" : 1,
					"presentation_rect" : [ 1260.500000000000227, 136.999996185302848, 146.0, 31.0 ],
					"textcolor" : [ 0.290196078431373, 0.850980392156863, 0.670588235294118, 1.0 ],
					"varname" : "instrumentType"
				}

			}
, 			{
				"box" : 				{
					"bgmode" : 0,
					"border" : 0,
					"clickthrough" : 0,
					"enablehscroll" : 0,
					"enablevscroll" : 0,
					"id" : "obj-34",
					"lockeddragscroll" : 0,
					"lockedsize" : 0,
					"maxclass" : "bpatcher",
					"name" : "noteFaders.maxpat",
					"numinlets" : 1,
					"numoutlets" : 1,
					"offset" : [ -56.0, -24.0 ],
					"outlettype" : [ "" ],
					"patching_rect" : [ 559.957480733233524, 233.43109715978278, 285.32500031838822, 160.999999999999886 ],
					"presentation" : 1,
					"presentation_rect" : [ 546.249994610746626, 59.733311971028797, 627.0, 132.0 ],
					"varname" : "noteFaders",
					"viewvisibility" : 1
				}

			}
, 			{
				"box" : 				{
					"id" : "obj-32",
					"maxclass" : "newobj",
					"numinlets" : 4,
					"numoutlets" : 4,
					"outlettype" : [ "bang", "bang", "bang", "" ],
					"patching_rect" : [ 804.045792292803526, 453.763847162326158, 54.0, 22.0 ],
					"text" : "sel 0 1 2"
				}

			}
, 			{
				"box" : 				{
					"id" : "obj-24",
					"maxclass" : "message",
					"numinlets" : 2,
					"numoutlets" : 1,
					"outlettype" : [ "" ],
					"patching_rect" : [ 804.045792292803526, 554.085882474978689, 79.0, 22.0 ],
					"text" : "offset -32 -18"
				}

			}
, 			{
				"box" : 				{
					"id" : "obj-19",
					"maxclass" : "message",
					"numinlets" : 2,
					"numoutlets" : 1,
					"outlettype" : [ "" ],
					"patching_rect" : [ 804.045792292803526, 520.187576582034353, 86.0, 22.0 ],
					"text" : "offset -32 -178"
				}

			}
, 			{
				"box" : 				{
					"id" : "obj-6",
					"maxclass" : "message",
					"numinlets" : 2,
					"numoutlets" : 1,
					"outlettype" : [ "" ],
					"patching_rect" : [ 804.045792292803526, 488.509610702594102, 86.0, 22.0 ],
					"text" : "offset -32 -337"
				}

			}
, 			{
				"box" : 				{
					"id" : "obj-29",
					"maxclass" : "newobj",
					"numinlets" : 1,
					"numoutlets" : 1,
					"outlettype" : [ "" ],
					"patching_rect" : [ 1014.245866160839569, 155.0, 53.0, 22.0 ],
					"text" : "v midin1"
				}

			}
, 			{
				"box" : 				{
					"bgmode" : 0,
					"border" : 0,
					"clickthrough" : 0,
					"enablehscroll" : 0,
					"enablevscroll" : 0,
					"id" : "obj-28",
					"lockeddragscroll" : 0,
					"lockedsize" : 0,
					"maxclass" : "bpatcher",
					"name" : "instrumentFaders.maxpat",
					"numinlets" : 1,
					"numoutlets" : 1,
					"offset" : [ -32.0, -337.0 ],
					"outlettype" : [ "" ],
					"patching_rect" : [ 559.957480733233524, 443.730486065149478, 227.66755930494503, 127.333349426587233 ],
					"presentation" : 1,
					"presentation_rect" : [ 562.249994610746626, 183.622899891538395, 581.057142964431023, 149.766667590085945 ],
					"varname" : "instrumentFaders",
					"viewvisibility" : 1
				}

			}
, 			{
				"box" : 				{
					"fontface" : 1,
					"fontname" : "Consolas",
					"fontsize" : 30.0,
					"id" : "obj-468",
					"linecount" : 2,
					"maxclass" : "comment",
					"numinlets" : 1,
					"numoutlets" : 0,
					"patching_rect" : [ 1074.024167850378262, 38.375685532887928, 385.0, 77.0 ],
					"presentation" : 1,
					"presentation_rect" : [ 574.5, 28.333327194055073, 546.0, 42.0 ],
					"text" : "Q1Synth Ensemble MIDI Controller",
					"textcolor" : [ 0.815686274509804, 0.815686274509804, 0.815686274509804, 1.0 ],
					"textjustification" : 1
				}

			}
, 			{
				"box" : 				{
					"bubblepoint" : 1.0,
					"bubbletextmargin" : 3,
					"fontname" : "Consolas",
					"fontsize" : 18.0,
					"id" : "obj-463",
					"linecount" : 2,
					"maxclass" : "comment",
					"numinlets" : 1,
					"numoutlets" : 0,
					"patching_rect" : [ 721.382487184939691, 947.363824625810139, 123.899993866682053, 49.0 ],
					"presentation" : 1,
					"presentation_rect" : [ 904.666671435038324, 572.38956748162434, 207.0, 28.0 ],
					"text" : "Mod/Filter Envelope",
					"textcolor" : [ 0.815686274509804, 0.815686274509804, 0.815686274509804, 1.0 ],
					"textjustification" : 1
				}

			}
, 			{
				"box" : 				{
					"bubblepoint" : 1.0,
					"bubbletextmargin" : 3,
					"fontname" : "Consolas",
					"fontsize" : 18.0,
					"id" : "obj-462",
					"linecount" : 2,
					"maxclass" : "comment",
					"numinlets" : 1,
					"numoutlets" : 0,
					"patching_rect" : [ 593.914490365733855, 947.363824625810139, 123.899993866682053, 49.0 ],
					"presentation" : 1,
					"presentation_rect" : [ 597.166671435038324, 572.38956748162434, 150.0, 28.0 ],
					"text" : "Main Envelope",
					"textcolor" : [ 0.815686274509804, 0.815686274509804, 0.815686274509804, 1.0 ],
					"textjustification" : 1
				}

			}
, 			{
				"box" : 				{
					"id" : "obj-435",
					"maxclass" : "newobj",
					"numinlets" : 1,
					"numoutlets" : 1,
					"outlettype" : [ "" ],
					"patching_rect" : [ 1105.980305543790109, 478.629096754672219, 70.0, 22.0 ],
					"text" : "loadmess 1"
				}

			}
, 			{
				"box" : 				{
					"bubblepoint" : 1.0,
					"bubbletextmargin" : 3,
					"fontface" : 0,
					"fontname" : "Consolas",
					"fontsize" : 100.0,
					"id" : "obj-433",
					"maxclass" : "comment",
					"numinlets" : 1,
					"numoutlets" : 0,
					"patching_rect" : [ 1101.480305543790109, 612.724521677891062, 79.0, 124.0 ],
					"presentation" : 1,
					"presentation_rect" : [ 816.0, 368.999996185302848, 63.0, 124.0 ],
					"text" : "|",
					"textcolor" : [ 0.815686274509804, 0.815686274509804, 0.815686274509804, 1.0 ]
				}

			}
, 			{
				"box" : 				{
					"bubblepoint" : 1.0,
					"bubbletextmargin" : 3,
					"fontface" : 0,
					"fontname" : "Consolas",
					"fontsize" : 100.0,
					"id" : "obj-434",
					"maxclass" : "comment",
					"numinlets" : 1,
					"numoutlets" : 0,
					"patching_rect" : [ 1101.480305543790109, 612.724521677891062, 79.0, 124.0 ],
					"presentation" : 1,
					"presentation_rect" : [ 816.0, 268.999996185302848, 63.0, 124.0 ],
					"text" : "|",
					"textcolor" : [ 0.815686274509804, 0.815686274509804, 0.815686274509804, 1.0 ]
				}

			}
, 			{
				"box" : 				{
					"bubblepoint" : 1.0,
					"bubbletextmargin" : 3,
					"fontface" : 0,
					"fontname" : "Consolas",
					"fontsize" : 100.0,
					"id" : "obj-432",
					"maxclass" : "comment",
					"numinlets" : 1,
					"numoutlets" : 0,
					"patching_rect" : [ 1101.480305543790109, 612.724521677891062, 79.0, 124.0 ],
					"presentation" : 1,
					"presentation_rect" : [ 816.0, 168.999996185302848, 63.0, 124.0 ],
					"text" : "|",
					"textcolor" : [ 0.815686274509804, 0.815686274509804, 0.815686274509804, 1.0 ]
				}

			}
, 			{
				"box" : 				{
					"bubblepoint" : 1.0,
					"bubbletextmargin" : 3,
					"fontface" : 0,
					"fontname" : "Consolas",
					"fontsize" : 100.0,
					"id" : "obj-431",
					"maxclass" : "comment",
					"numinlets" : 1,
					"numoutlets" : 0,
					"patching_rect" : [ 1101.480305543790109, 612.724521677891062, 79.0, 124.0 ],
					"presentation" : 1,
					"presentation_rect" : [ 816.0, 68.999996185302848, 63.0, 124.0 ],
					"text" : "|",
					"textcolor" : [ 0.815686274509804, 0.815686274509804, 0.815686274509804, 1.0 ]
				}

			}
, 			{
				"box" : 				{
					"id" : "obj-352",
					"maxclass" : "newobj",
					"numinlets" : 1,
					"numoutlets" : 4,
					"outlettype" : [ "", "", "", "" ],
					"patching_rect" : [ 1211.221891645342112, 466.295747328084872, 56.0, 22.0 ],
					"restore" : 					{
						"instrumentType" : [ 0 ]
					}
,
					"text" : "autopattr",
					"varname" : "u516006445"
				}

			}
, 			{
				"box" : 				{
					"id" : "obj-348",
					"maxclass" : "message",
					"numinlets" : 2,
					"numoutlets" : 1,
					"outlettype" : [ "" ],
					"patching_rect" : [ 1105.980305543790109, 524.414266753477023, 89.0, 22.0 ],
					"text" : "storagewindow"
				}

			}
, 			{
				"box" : 				{
					"autorestore" : "q1synthMIDIcustomMapping.json",
					"id" : "obj-318",
					"maxclass" : "newobj",
					"numinlets" : 1,
					"numoutlets" : 1,
					"outlettype" : [ "" ],
					"patching_rect" : [ 928.067810773849487, 581.335292412954232, 360.677968263626099, 22.0 ],
					"saved_object_attributes" : 					{
						"client_rect" : [ 4, 44, 358, 172 ],
						"parameter_enable" : 0,
						"parameter_mappable" : 0,
						"storage_rect" : [ 583, 69, 1034, 936 ]
					}
,
					"text" : "pattrstorage q1synthMIDImapping @savemode 2",
					"varname" : "q1synthMIDImapping"
				}

			}
, 			{
				"box" : 				{
					"id" : "obj-289",
					"maxclass" : "newobj",
					"numinlets" : 3,
					"numoutlets" : 1,
					"outlettype" : [ "" ],
					"patching_rect" : [ 1157.75529330844688, 819.642361998558044, 103.0, 22.0 ],
					"text" : "join 3 @triggers 2"
				}

			}
, 			{
				"box" : 				{
					"id" : "obj-216",
					"maxclass" : "newobj",
					"numinlets" : 2,
					"numoutlets" : 1,
					"outlettype" : [ "" ],
					"patching_rect" : [ 1143.980305543790109, 900.0, 32.0, 22.0 ],
					"text" : "gate"
				}

			}
, 			{
				"box" : 				{
					"id" : "obj-217",
					"maxclass" : "newobj",
					"numinlets" : 0,
					"numoutlets" : 1,
					"outlettype" : [ "" ],
					"patching_rect" : [ 1092.980305543790337, 743.624029027457368, 61.0, 22.0 ],
					"text" : "r ctrll_tggl"
				}

			}
, 			{
				"box" : 				{
					"id" : "obj-257",
					"maxclass" : "newobj",
					"numinlets" : 0,
					"numoutlets" : 1,
					"outlettype" : [ "" ],
					"patching_rect" : [ 1157.75529330844688, 743.624029027457368, 60.0, 22.0 ],
					"text" : "r indevice"
				}

			}
, 			{
				"box" : 				{
					"id" : "obj-259",
					"maxclass" : "newobj",
					"numinlets" : 1,
					"numoutlets" : 3,
					"outlettype" : [ "int", "int", "int" ],
					"patching_rect" : [ 1157.75529330844688, 773.957362360790739, 40.0, 22.0 ],
					"text" : "ctlin"
				}

			}
, 			{
				"box" : 				{
					"fontface" : 1,
					"fontname" : "Consolas",
					"fontsize" : 16.0,
					"id" : "obj-305",
					"linecount" : 2,
					"maxclass" : "comment",
					"numinlets" : 1,
					"numoutlets" : 0,
					"patching_rect" : [ 1074.024167850378262, 183.199995160102617, 211.0, 44.0 ],
					"presentation" : 1,
					"presentation_linecount" : 2,
					"presentation_rect" : [ 1228.0, 617.472903199143389, 211.0, 44.0 ],
					"text" : " \niccmr-quantum.github.io",
					"textcolor" : [ 1.0, 1.0, 1.0, 1.0 ],
					"textjustification" : 2
				}

			}
, 			{
				"box" : 				{
					"fontface" : 1,
					"fontname" : "Consolas",
					"fontsize" : 16.0,
					"id" : "obj-306",
					"linecount" : 3,
					"maxclass" : "comment",
					"numinlets" : 1,
					"numoutlets" : 0,
					"patching_rect" : [ 1074.024167850378262, 120.166645924250474, 247.552495844307714, 63.0 ],
					"text" : "Q1Synth Ensemble Controller\nControlling Q1Synth via Max\n(09-2022)",
					"textcolor" : [ 0.231372549019608, 0.231372549019608, 0.231372549019608, 1.0 ]
				}

			}
, 			{
				"box" : 				{
					"id" : "obj-302",
					"maxclass" : "newobj",
					"numinlets" : 0,
					"numoutlets" : 1,
					"outlettype" : [ "" ],
					"patching_rect" : [ 911.46780464053154, 814.181895116965279, 61.0, 22.0 ],
					"text" : "r ctrll_tggl"
				}

			}
, 			{
				"box" : 				{
					"id" : "obj-301",
					"maxclass" : "newobj",
					"numinlets" : 1,
					"numoutlets" : 0,
					"patching_rect" : [ 23.710159808397293, 107.93328317006501, 63.0, 22.0 ],
					"text" : "s ctrll_tggl"
				}

			}
, 			{
				"box" : 				{
					"id" : "obj-300",
					"maxclass" : "newobj",
					"numinlets" : 1,
					"numoutlets" : 1,
					"outlettype" : [ "" ],
					"patching_rect" : [ 23.710159808397293, 30.666658202807184, 70.0, 22.0 ],
					"text" : "loadmess 0"
				}

			}
, 			{
				"box" : 				{
					"id" : "obj-299",
					"maxclass" : "newobj",
					"numinlets" : 2,
					"numoutlets" : 1,
					"outlettype" : [ "" ],
					"patching_rect" : [ 962.567810773849487, 863.181882838408455, 32.0, 22.0 ],
					"text" : "gate"
				}

			}
, 			{
				"box" : 				{
					"bubblepoint" : 1.0,
					"bubbletextmargin" : 3,
					"fontname" : "Consolas",
					"fontsize" : 18.0,
					"id" : "obj-297",
					"linecount" : 2,
					"maxclass" : "comment",
					"numinlets" : 1,
					"numoutlets" : 0,
					"patching_rect" : [ 19.083901897072792, 134.166645924250474, 127.289824455976486, 49.0 ],
					"presentation" : 1,
					"presentation_linecount" : 2,
					"presentation_rect" : [ 408.249994610746626, 86.999996185302848, 120.0, 49.0 ],
					"text" : "Toggle Controller",
					"textcolor" : [ 0.815686274509804, 0.815686274509804, 0.815686274509804, 1.0 ]
				}

			}
, 			{
				"box" : 				{
					"id" : "obj-298",
					"maxclass" : "toggle",
					"numinlets" : 1,
					"numoutlets" : 1,
					"outlettype" : [ "int" ],
					"parameter_enable" : 0,
					"patching_rect" : [ 23.710159808397293, 71.866641680400107, 24.0, 24.0 ],
					"presentation" : 1,
					"presentation_rect" : [ 350.249994610746683, 93.499996185302848, 42.5, 42.5 ]
				}

			}
, 			{
				"box" : 				{
					"bubblepoint" : 1.0,
					"bubbletextmargin" : 3,
					"fontname" : "Consolas",
					"fontsize" : 18.0,
					"id" : "obj-296",
					"maxclass" : "comment",
					"numinlets" : 1,
					"numoutlets" : 0,
					"patching_rect" : [ 137.213952194721969, 69.89997863769554, 123.899993866682053, 28.0 ],
					"presentation" : 1,
					"presentation_rect" : [ 408.249994610746626, 47.833327194055073, 120.0, 28.0 ],
					"text" : "Toggle Ring",
					"textcolor" : [ 0.815686274509804, 0.815686274509804, 0.815686274509804, 1.0 ]
				}

			}
, 			{
				"box" : 				{
					"id" : "obj-295",
					"maxclass" : "message",
					"numinlets" : 2,
					"numoutlets" : 1,
					"outlettype" : [ "" ],
					"patching_rect" : [ 511.629159272958304, 126.857605695724715, 63.0, 22.0 ],
					"text" : "set Neova"
				}

			}
, 			{
				"box" : 				{
					"fontname" : "Consolas",
					"id" : "obj-292",
					"maxclass" : "comment",
					"numinlets" : 1,
					"numoutlets" : 0,
					"patching_rect" : [ 891.045792292803412, 108.39997863769554, 114.000000000000114, 21.0 ],
					"presentation" : 1,
					"presentation_rect" : [ 146.0, 113.666652063528886, 85.0, 21.0 ],
					"text" : "ring device",
					"textcolor" : [ 0.815686274509804, 0.815686274509804, 0.815686274509804, 1.0 ]
				}

			}
, 			{
				"box" : 				{
					"fontface" : 0,
					"fontname" : "Arial",
					"fontsize" : 13.0,
					"id" : "obj-293",
					"items" : [ "Microsoft GS Wavetable Synth", ",", "Midi Fighter Twister", ",", "WidiBud" ],
					"labelclick" : 1,
					"maxclass" : "umenu",
					"numinlets" : 1,
					"numoutlets" : 3,
					"outlettype" : [ "int", "", "" ],
					"parameter_enable" : 0,
					"patching_rect" : [ 784.545792292803412, 105.39997863769554, 100.0, 23.0 ],
					"presentation" : 1,
					"presentation_rect" : [ 42.0, 110.666652063528886, 100.0, 23.0 ]
				}

			}
, 			{
				"box" : 				{
					"id" : "obj-291",
					"maxclass" : "newobj",
					"numinlets" : 1,
					"numoutlets" : 0,
					"patching_rect" : [ 767.045792292803412, 147.666645924250474, 73.0, 22.0 ],
					"text" : "s ringdevice"
				}

			}
, 			{
				"box" : 				{
					"fontname" : "Consolas",
					"id" : "obj-8",
					"maxclass" : "comment",
					"numinlets" : 1,
					"numoutlets" : 0,
					"patching_rect" : [ 607.479102314760098, 32.666658202807184, 116.0, 21.0 ],
					"presentation" : 1,
					"presentation_linecount" : 2,
					"presentation_rect" : [ 257.0, 45.333327194055073, 61.0, 35.0 ],
					"text" : "refresh devices",
					"textcolor" : [ 0.815686274509804, 0.815686274509804, 0.815686274509804, 1.0 ]
				}

			}
, 			{
				"box" : 				{
					"id" : "obj-278",
					"maxclass" : "message",
					"numinlets" : 2,
					"numoutlets" : 1,
					"outlettype" : [ "" ],
					"patching_rect" : [ 511.980292430768259, 90.145740985870589, 140.0, 22.0 ],
					"text" : "set \"Midi Fighter Twister\""
				}

			}
, 			{
				"box" : 				{
					"id" : "obj-279",
					"maxclass" : "button",
					"numinlets" : 1,
					"numoutlets" : 1,
					"outlettype" : [ "bang" ],
					"parameter_enable" : 0,
					"patching_rect" : [ 574.912494769940622, 30.666658202807184, 24.0, 24.0 ],
					"presentation" : 1,
					"presentation_rect" : [ 227.0, 49.333327194055073, 27.0, 27.0 ]
				}

			}
, 			{
				"box" : 				{
					"id" : "obj-281",
					"maxclass" : "message",
					"numinlets" : 2,
					"numoutlets" : 1,
					"outlettype" : [ "" ],
					"patching_rect" : [ 585.245866160839569, 126.857605695724715, 96.0, 22.0 ],
					"text" : "set \"from Max 1\""
				}

			}
, 			{
				"box" : 				{
					"id" : "obj-282",
					"maxclass" : "newobj",
					"numinlets" : 1,
					"numoutlets" : 4,
					"outlettype" : [ "bang", "bang", "bang", "bang" ],
					"patching_rect" : [ 511.912494769940622, 59.666658202807184, 52.0, 22.0 ],
					"text" : "t b b b b"
				}

			}
, 			{
				"box" : 				{
					"fontname" : "Consolas",
					"id" : "obj-128",
					"maxclass" : "comment",
					"numinlets" : 1,
					"numoutlets" : 0,
					"patching_rect" : [ 891.045792292803412, 75.066645304362169, 114.000000000000114, 21.0 ],
					"presentation" : 1,
					"presentation_rect" : [ 146.0, 80.833327194055073, 74.0, 21.0 ],
					"text" : "out device",
					"textcolor" : [ 0.815686274509804, 0.815686274509804, 0.815686274509804, 1.0 ]
				}

			}
, 			{
				"box" : 				{
					"fontname" : "Consolas",
					"id" : "obj-126",
					"maxclass" : "comment",
					"numinlets" : 1,
					"numoutlets" : 0,
					"patching_rect" : [ 891.045792292803412, 38.066645304362169, 120.000000000000114, 21.0 ],
					"presentation" : 1,
					"presentation_rect" : [ 146.0, 49.333327194055073, 77.0, 21.0 ],
					"text" : "in device",
					"textcolor" : [ 0.815686274509804, 0.815686274509804, 0.815686274509804, 1.0 ]
				}

			}
, 			{
				"box" : 				{
					"id" : "obj-283",
					"maxclass" : "newobj",
					"numinlets" : 1,
					"numoutlets" : 0,
					"patching_rect" : [ 842.045792292803412, 147.666645924250474, 62.0, 22.0 ],
					"text" : "s indevice"
				}

			}
, 			{
				"box" : 				{
					"fontface" : 0,
					"fontname" : "Arial",
					"fontsize" : 13.0,
					"id" : "obj-284",
					"items" : [ "Microsoft GS Wavetable Synth", ",", "Midi Fighter Twister", ",", "WidiBud" ],
					"labelclick" : 1,
					"maxclass" : "umenu",
					"numinlets" : 1,
					"numoutlets" : 3,
					"outlettype" : [ "int", "", "" ],
					"parameter_enable" : 0,
					"patching_rect" : [ 784.545792292803412, 38.066645304362169, 100.0, 23.0 ],
					"presentation" : 1,
					"presentation_rect" : [ 42.0, 47.833327194055073, 100.0, 23.0 ]
				}

			}
, 			{
				"box" : 				{
					"id" : "obj-285",
					"maxclass" : "newobj",
					"numinlets" : 1,
					"numoutlets" : 0,
					"patching_rect" : [ 908.212492457280518, 147.666645924250474, 69.0, 22.0 ],
					"text" : "s outdevice"
				}

			}
, 			{
				"box" : 				{
					"id" : "obj-286",
					"maxclass" : "newobj",
					"numinlets" : 1,
					"numoutlets" : 1,
					"outlettype" : [ "bang" ],
					"patching_rect" : [ 511.912494769940622, 30.666658202807184, 58.0, 22.0 ],
					"text" : "loadbang"
				}

			}
, 			{
				"box" : 				{
					"fontface" : 0,
					"fontname" : "Arial",
					"fontsize" : 13.0,
					"id" : "obj-287",
					"items" : [ "Microsoft GS Wavetable Synth", ",", "Midi Fighter Twister", ",", "WidiBud" ],
					"labelclick" : 1,
					"maxclass" : "umenu",
					"numinlets" : 1,
					"numoutlets" : 3,
					"outlettype" : [ "int", "", "" ],
					"parameter_enable" : 0,
					"patching_rect" : [ 784.545792292803412, 72.066645304362169, 100.0, 23.0 ],
					"presentation" : 1,
					"presentation_rect" : [ 42.0, 77.833327194055073, 100.0, 23.0 ]
				}

			}
, 			{
				"box" : 				{
					"fontname" : "Arial",
					"fontsize" : 13.0,
					"id" : "obj-288",
					"maxclass" : "newobj",
					"numinlets" : 2,
					"numoutlets" : 1,
					"outlettype" : [ "" ],
					"patching_rect" : [ 625.545792292803412, 60.999991536140556, 55.0, 23.0 ],
					"text" : "midiinfo"
				}

			}
, 			{
				"box" : 				{
					"id" : "obj-13",
					"maxclass" : "newobj",
					"numinlets" : 1,
					"numoutlets" : 1,
					"outlettype" : [ "" ],
					"patching_rect" : [ 109.663949128062995, 30.666658202807184, 70.0, 22.0 ],
					"text" : "loadmess 0"
				}

			}
, 			{
				"box" : 				{
					"id" : "obj-260",
					"maxclass" : "toggle",
					"numinlets" : 1,
					"numoutlets" : 1,
					"outlettype" : [ "int" ],
					"parameter_enable" : 0,
					"patching_rect" : [ 109.663949128062995, 69.89997863769554, 24.0, 24.0 ],
					"presentation" : 1,
					"presentation_rect" : [ 350.249994610746683, 43.833327194055073, 42.5, 42.5 ]
				}

			}
, 			{
				"box" : 				{
					"bubblepoint" : 1.0,
					"bubbletextmargin" : 3,
					"fontname" : "Consolas",
					"fontsize" : 18.0,
					"id" : "obj-101",
					"linecount" : 2,
					"maxclass" : "comment",
					"numinlets" : 1,
					"numoutlets" : 0,
					"patching_rect" : [ 333.588716048747528, 947.363824625810139, 97.0, 49.0 ],
					"presentation" : 1,
					"presentation_rect" : [ 882.166671435038211, 524.056238916662551, 105.0, 28.0 ],
					"text" : "Randomize",
					"textcolor" : [ 0.815686274509804, 0.815686274509804, 0.815686274509804, 1.0 ],
					"textjustification" : 1
				}

			}
, 			{
				"box" : 				{
					"bubblepoint" : 1.0,
					"bubbletextmargin" : 3,
					"fontname" : "Consolas",
					"fontsize" : 18.0,
					"id" : "obj-100",
					"maxclass" : "comment",
					"numinlets" : 1,
					"numoutlets" : 0,
					"patching_rect" : [ 229.505097895860672, 966.937847654024836, 96.766609857479807, 28.0 ],
					"text" : "Measure",
					"textcolor" : [ 0.815686274509804, 0.815686274509804, 0.815686274509804, 1.0 ],
					"textjustification" : 1
				}

			}
, 			{
				"box" : 				{
					"bubblepoint" : 1.0,
					"bubbletextmargin" : 3,
					"fontname" : "Consolas",
					"fontsize" : 18.0,
					"id" : "obj-98",
					"linecount" : 2,
					"maxclass" : "comment",
					"numinlets" : 1,
					"numoutlets" : 0,
					"patching_rect" : [ 292.910748977214325, 998.363824625810139, 78.0, 49.0 ],
					"presentation" : 1,
					"presentation_rect" : [ 697.963547297402897, 524.056238916662551, 101.0, 28.0 ],
					"text" : "Play/Stop",
					"textcolor" : [ 0.815686274509804, 0.815686274509804, 0.815686274509804, 1.0 ],
					"textjustification" : 1
				}

			}
, 			{
				"box" : 				{
					"id" : "obj-136",
					"maxclass" : "newobj",
					"numinlets" : 2,
					"numoutlets" : 1,
					"outlettype" : [ "" ],
					"patching_rect" : [ 975.567810773849487, 814.181895116965279, 103.0, 22.0 ],
					"text" : "join 2 @triggers 1"
				}

			}
, 			{
				"box" : 				{
					"bubblepoint" : 1.0,
					"bubbletextmargin" : 3,
					"fontname" : "Consolas",
					"fontsize" : 18.0,
					"id" : "obj-4",
					"maxclass" : "comment",
					"numinlets" : 1,
					"numoutlets" : 0,
					"patching_rect" : [ 206.880583190669768, 554.085882474978689, 123.899993866682053, 28.0 ],
					"presentation" : 1,
					"presentation_rect" : [ 184.233913905209192, 460.900004208087694, 137.0, 28.0 ],
					"text" : "Presets 1-8",
					"textcolor" : [ 0.815686274509804, 0.815686274509804, 0.815686274509804, 1.0 ],
					"textjustification" : 1
				}

			}
, 			{
				"box" : 				{
					"id" : "obj-65",
					"maxclass" : "newobj",
					"numinlets" : 0,
					"numoutlets" : 1,
					"outlettype" : [ "" ],
					"patching_rect" : [ 975.567810773849487, 743.624029027457368, 60.0, 22.0 ],
					"text" : "r indevice"
				}

			}
, 			{
				"box" : 				{
					"id" : "obj-66",
					"maxclass" : "newobj",
					"numinlets" : 1,
					"numoutlets" : 3,
					"outlettype" : [ "int", "int", "int" ],
					"patching_rect" : [ 975.567810773849487, 773.957362360790739, 41.0, 22.0 ],
					"text" : "notein"
				}

			}
, 			{
				"box" : 				{
					"id" : "obj-49",
					"maxclass" : "newobj",
					"numinlets" : 0,
					"numoutlets" : 1,
					"outlettype" : [ "" ],
					"patching_rect" : [ 45.013762848540409, 969.937847654024836, 67.0, 22.0 ],
					"text" : "r outdevice"
				}

			}
, 			{
				"box" : 				{
					"id" : "obj-39",
					"maxclass" : "newobj",
					"numinlets" : 1,
					"numoutlets" : 2,
					"outlettype" : [ "int", "int" ],
					"patching_rect" : [ 123.186024851564866, 1030.050112009048689, 59.0, 22.0 ],
					"text" : "unpack i i"
				}

			}
, 			{
				"box" : 				{
					"id" : "obj-22",
					"maxclass" : "newobj",
					"numinlets" : 3,
					"numoutlets" : 0,
					"patching_rect" : [ 142.186024851564866, 1079.195600813510737, 40.0, 22.0 ],
					"text" : "ctlout"
				}

			}
, 			{
				"box" : 				{
					"bgmode" : 0,
					"border" : 0,
					"clickthrough" : 0,
					"enablehscroll" : 0,
					"enablevscroll" : 0,
					"id" : "obj-43",
					"lockeddragscroll" : 0,
					"lockedsize" : 0,
					"maxclass" : "bpatcher",
					"name" : "ringFaders.maxpat",
					"numinlets" : 1,
					"numoutlets" : 1,
					"offset" : [ -17.0, -130.0 ],
					"outlettype" : [ "" ],
					"patching_rect" : [ 36.089637471274273, 233.43109715978278, 487.0, 222.866626004378304 ],
					"presentation" : 1,
					"presentation_rect" : [ 17.138076381669407, 130.10000583529461, 487.0, 222.866626004378304 ],
					"varname" : "ringFaders",
					"viewvisibility" : 1
				}

			}
, 			{
				"box" : 				{
					"id" : "obj-351",
					"maxclass" : "message",
					"numinlets" : 2,
					"numoutlets" : 1,
					"outlettype" : [ "" ],
					"patching_rect" : [ 932.067810773849487, 454.629096754672219, 45.0, 22.0 ],
					"presentation" : 1,
					"presentation_rect" : [ 1265.568359375000455, 393.38956748162434, 45.0, 22.0 ],
					"text" : "store 1",
					"varname" : "store[1]"
				}

			}
, 			{
				"box" : 				{
					"id" : "obj-14",
					"maxclass" : "message",
					"numinlets" : 2,
					"numoutlets" : 1,
					"outlettype" : [ "" ],
					"patching_rect" : [ 980.818468285635845, 454.629096754672219, 45.0, 22.0 ],
					"presentation" : 1,
					"presentation_rect" : [ 1312.357587552102132, 393.38956748162434, 45.0, 22.0 ],
					"text" : "store 2",
					"varname" : "store[2]"
				}

			}
, 			{
				"box" : 				{
					"id" : "obj-15",
					"maxclass" : "message",
					"numinlets" : 2,
					"numoutlets" : 1,
					"outlettype" : [ "" ],
					"patching_rect" : [ 1027.818468285635845, 454.629096754672219, 45.0, 22.0 ],
					"presentation" : 1,
					"presentation_rect" : [ 1356.568359375000455, 393.38956748162434, 45.0, 22.0 ],
					"text" : "store 3",
					"varname" : "store[3]"
				}

			}
, 			{
				"box" : 				{
					"id" : "obj-16",
					"maxclass" : "message",
					"numinlets" : 2,
					"numoutlets" : 1,
					"outlettype" : [ "" ],
					"patching_rect" : [ 932.067810773849487, 478.629096754672219, 45.0, 22.0 ],
					"presentation" : 1,
					"presentation_rect" : [ 1265.568359375000455, 417.38956748162434, 45.0, 22.0 ],
					"text" : "store 4",
					"varname" : "store[4]"
				}

			}
, 			{
				"box" : 				{
					"id" : "obj-33",
					"maxclass" : "message",
					"numinlets" : 2,
					"numoutlets" : 1,
					"outlettype" : [ "" ],
					"patching_rect" : [ 980.818468285635845, 478.629096754672219, 45.0, 22.0 ],
					"presentation" : 1,
					"presentation_rect" : [ 1312.357587552102132, 417.38956748162434, 45.0, 22.0 ],
					"text" : "store 5",
					"varname" : "store[5]"
				}

			}
, 			{
				"box" : 				{
					"id" : "obj-36",
					"maxclass" : "message",
					"numinlets" : 2,
					"numoutlets" : 1,
					"outlettype" : [ "" ],
					"patching_rect" : [ 1027.818468285635845, 478.629096754672219, 45.0, 22.0 ],
					"presentation" : 1,
					"presentation_rect" : [ 1356.568359375000455, 417.38956748162434, 45.0, 22.0 ],
					"text" : "store 6",
					"varname" : "store[6]"
				}

			}
, 			{
				"box" : 				{
					"id" : "obj-37",
					"maxclass" : "message",
					"numinlets" : 2,
					"numoutlets" : 1,
					"outlettype" : [ "" ],
					"patching_rect" : [ 932.067810773849487, 505.295747328084872, 45.0, 22.0 ],
					"presentation" : 1,
					"presentation_rect" : [ 1265.568359375000455, 439.066629926364044, 45.0, 22.0 ],
					"text" : "store 7",
					"varname" : "store[7]"
				}

			}
, 			{
				"box" : 				{
					"id" : "obj-38",
					"maxclass" : "message",
					"numinlets" : 2,
					"numoutlets" : 1,
					"outlettype" : [ "" ],
					"patching_rect" : [ 980.818468285635845, 505.295747328084872, 45.0, 22.0 ],
					"presentation" : 1,
					"presentation_rect" : [ 1312.357587552102132, 439.066629926364044, 45.0, 22.0 ],
					"text" : "store 8",
					"varname" : "store[8]"
				}

			}
, 			{
				"box" : 				{
					"id" : "obj-40",
					"maxclass" : "message",
					"numinlets" : 2,
					"numoutlets" : 1,
					"outlettype" : [ "" ],
					"patching_rect" : [ 1027.818468285635845, 504.735688734334872, 45.0, 22.0 ],
					"presentation" : 1,
					"presentation_rect" : [ 1356.568359375000455, 439.066629926364044, 45.0, 22.0 ],
					"text" : "store 9",
					"varname" : "store[9]"
				}

			}
, 			{
				"box" : 				{
					"angle" : 270.0,
					"background" : 1,
					"bgcolor" : [ 0.231372549019608, 0.231372549019608, 0.231372549019608, 1.0 ],
					"id" : "obj-258",
					"maxclass" : "panel",
					"mode" : 0,
					"numinlets" : 1,
					"numoutlets" : 0,
					"patching_rect" : [ 1342.970751239725814, 120.166645924250474, 116.053416610652448, 107.033349235852143 ],
					"presentation" : 1,
					"presentation_rect" : [ 11.0, 19.033318837483762, 1478.0, 670.133348162516199 ],
					"proportion" : 0.5
				}

			}
 ],
		"lines" : [ 			{
				"patchline" : 				{
					"destination" : [ "obj-18", 0 ],
					"midpoints" : [ 972.067810773849487, 1023.0, 945.5, 1023.0 ],
					"source" : [ "obj-1", 0 ]
				}

			}
, 			{
				"patchline" : 				{
					"destination" : [ "obj-21", 0 ],
					"midpoints" : [ 990.62336632940503, 1023.0, 981.388888888888914, 1023.0 ],
					"source" : [ "obj-1", 1 ]
				}

			}
, 			{
				"patchline" : 				{
					"destination" : [ "obj-27", 0 ],
					"midpoints" : [ 1009.178921884960573, 1023.0, 1017.277777777777828, 1023.0 ],
					"source" : [ "obj-1", 2 ]
				}

			}
, 			{
				"patchline" : 				{
					"destination" : [ "obj-48", 0 ],
					"midpoints" : [ 1027.73447744051623, 1023.0, 1053.166666666666742, 1023.0 ],
					"source" : [ "obj-1", 3 ]
				}

			}
, 			{
				"patchline" : 				{
					"destination" : [ "obj-52", 0 ],
					"midpoints" : [ 1046.290032996071659, 1023.0, 1089.055555555555657, 1023.0 ],
					"source" : [ "obj-1", 4 ]
				}

			}
, 			{
				"patchline" : 				{
					"destination" : [ "obj-54", 0 ],
					"midpoints" : [ 1064.845588551627316, 1023.0, 1124.944444444444343, 1023.0 ],
					"source" : [ "obj-1", 5 ]
				}

			}
, 			{
				"patchline" : 				{
					"destination" : [ "obj-56", 0 ],
					"midpoints" : [ 1083.401144107182745, 1023.0, 1160.833333333333258, 1023.0 ],
					"source" : [ "obj-1", 6 ]
				}

			}
, 			{
				"patchline" : 				{
					"destination" : [ "obj-58", 0 ],
					"midpoints" : [ 1101.956699662738401, 1023.0, 1196.722222222222172, 1023.0 ],
					"source" : [ "obj-1", 7 ]
				}

			}
, 			{
				"patchline" : 				{
					"destination" : [ "obj-60", 0 ],
					"midpoints" : [ 1120.512255218293831, 1023.0, 1232.611111111111086, 1023.0 ],
					"source" : [ "obj-1", 8 ]
				}

			}
, 			{
				"patchline" : 				{
					"destination" : [ "obj-5", 0 ],
					"midpoints" : [ 1287.567810773849487, 492.0, 1290.0, 492.0, 1290.0, 618.0, 1352.470751239725814, 618.0 ],
					"source" : [ "obj-10", 0 ]
				}

			}
, 			{
				"patchline" : 				{
					"destination" : [ "obj-35", 0 ],
					"midpoints" : [ 569.457480733233524, 606.0, 569.457480733233524, 606.0 ],
					"source" : [ "obj-103", 0 ]
				}

			}
, 			{
				"patchline" : 				{
					"destination" : [ "obj-110", 0 ],
					"midpoints" : [ 1304.697473969607245, 549.0, 1304.697473969607245, 549.0 ],
					"source" : [ "obj-105", 0 ]
				}

			}
, 			{
				"patchline" : 				{
					"destination" : [ "obj-17", 0 ],
					"source" : [ "obj-11", 1 ]
				}

			}
, 			{
				"patchline" : 				{
					"destination" : [ "obj-140", 0 ],
					"midpoints" : [ 1361.010814363718509, 576.0, 1311.845822920341561, 576.0 ],
					"source" : [ "obj-110", 1 ]
				}

			}
, 			{
				"patchline" : 				{
					"destination" : [ "obj-10", 0 ],
					"midpoints" : [ 1295.567810773849487, 459.0, 1287.567810773849487, 459.0 ],
					"order" : 1,
					"source" : [ "obj-12", 0 ]
				}

			}
, 			{
				"patchline" : 				{
					"destination" : [ "obj-164", 0 ],
					"order" : 0,
					"source" : [ "obj-12", 0 ]
				}

			}
, 			{
				"patchline" : 				{
					"destination" : [ "obj-260", 0 ],
					"midpoints" : [ 119.163949128062995, 54.0, 119.163949128062995, 54.0 ],
					"source" : [ "obj-13", 0 ]
				}

			}
, 			{
				"patchline" : 				{
					"destination" : [ "obj-299", 1 ],
					"midpoints" : [ 985.067810773849487, 850.557866089507797, 985.067810773849487, 850.557866089507797 ],
					"source" : [ "obj-136", 0 ]
				}

			}
, 			{
				"patchline" : 				{
					"destination" : [ "obj-318", 0 ],
					"midpoints" : [ 990.318468285635845, 501.0, 918.0, 501.0, 918.0, 567.0, 937.567810773849487, 567.0 ],
					"source" : [ "obj-14", 0 ]
				}

			}
, 			{
				"patchline" : 				{
					"destination" : [ "obj-318", 0 ],
					"midpoints" : [ 1311.845822920341561, 606.0, 1290.0, 606.0, 1290.0, 567.0, 1152.0, 567.0, 1152.0, 552.0, 937.567810773849487, 552.0 ],
					"source" : [ "obj-140", 0 ]
				}

			}
, 			{
				"patchline" : 				{
					"destination" : [ "obj-318", 0 ],
					"midpoints" : [ 1037.318468285635845, 501.0, 1083.0, 501.0, 1083.0, 567.0, 937.567810773849487, 567.0 ],
					"source" : [ "obj-15", 0 ]
				}

			}
, 			{
				"patchline" : 				{
					"destination" : [ "obj-155", 0 ],
					"midpoints" : [ 1400.669270387540337, 537.0, 1437.0, 537.0, 1437.0, 576.0, 1402.324154757830001, 576.0 ],
					"source" : [ "obj-151", 1 ]
				}

			}
, 			{
				"patchline" : 				{
					"destination" : [ "obj-318", 0 ],
					"midpoints" : [ 1402.324154757830001, 606.0, 1290.0, 606.0, 1290.0, 567.0, 1152.0, 567.0, 1152.0, 552.0, 937.567810773849487, 552.0 ],
					"source" : [ "obj-155", 0 ]
				}

			}
, 			{
				"patchline" : 				{
					"destination" : [ "obj-318", 0 ],
					"midpoints" : [ 941.567810773849487, 501.0, 918.0, 501.0, 918.0, 567.0, 937.567810773849487, 567.0 ],
					"source" : [ "obj-16", 0 ]
				}

			}
, 			{
				"patchline" : 				{
					"destination" : [ "obj-105", 0 ],
					"midpoints" : [ 1304.697473969607245, 519.0, 1304.697473969607245, 519.0 ],
					"source" : [ "obj-164", 0 ]
				}

			}
, 			{
				"patchline" : 				{
					"destination" : [ "obj-1", 0 ],
					"source" : [ "obj-17", 0 ]
				}

			}
, 			{
				"patchline" : 				{
					"destination" : [ "obj-5", 0 ],
					"midpoints" : [ 945.5, 1068.0, 1263.0, 1068.0, 1263.0, 987.0, 1254.0, 987.0, 1254.0, 828.0, 1352.470751239725814, 828.0 ],
					"source" : [ "obj-18", 0 ]
				}

			}
, 			{
				"patchline" : 				{
					"destination" : [ "obj-28", 0 ],
					"midpoints" : [ 813.545792292803526, 543.0, 786.0, 543.0, 786.0, 405.0, 546.0, 405.0, 546.0, 438.0, 569.457480733233524, 438.0 ],
					"source" : [ "obj-19", 0 ]
				}

			}
, 			{
				"patchline" : 				{
					"destination" : [ "obj-9", 0 ],
					"midpoints" : [ 285.631640732288361, 66.0, 285.631640732288361, 66.0 ],
					"source" : [ "obj-2", 0 ]
				}

			}
, 			{
				"patchline" : 				{
					"destination" : [ "obj-5", 0 ],
					"midpoints" : [ 981.388888888888914, 1068.0, 1263.0, 1068.0, 1263.0, 987.0, 1254.0, 987.0, 1254.0, 828.0, 1352.470751239725814, 828.0 ],
					"source" : [ "obj-21", 0 ]
				}

			}
, 			{
				"patchline" : 				{
					"destination" : [ "obj-7", 1 ],
					"source" : [ "obj-216", 0 ]
				}

			}
, 			{
				"patchline" : 				{
					"destination" : [ "obj-216", 0 ],
					"midpoints" : [ 1102.480305543790337, 804.0, 1131.480305543790109, 804.0, 1131.480305543790109, 831.0, 1153.480305543790109, 831.0 ],
					"source" : [ "obj-217", 0 ]
				}

			}
, 			{
				"patchline" : 				{
					"destination" : [ "obj-31", 0 ],
					"midpoints" : [ 1220.721891645342112, 528.0, 1220.721891645342112, 528.0 ],
					"source" : [ "obj-23", 0 ]
				}

			}
, 			{
				"patchline" : 				{
					"destination" : [ "obj-28", 0 ],
					"midpoints" : [ 813.545792292803526, 588.0, 606.0, 588.0, 606.0, 570.0, 546.0, 570.0, 546.0, 438.0, 569.457480733233524, 438.0 ],
					"source" : [ "obj-24", 0 ]
				}

			}
, 			{
				"patchline" : 				{
					"destination" : [ "obj-32", 0 ],
					"midpoints" : [ 813.545792292803526, 447.0, 813.545792292803526, 447.0 ],
					"source" : [ "obj-25", 0 ]
				}

			}
, 			{
				"patchline" : 				{
					"destination" : [ "obj-259", 0 ],
					"midpoints" : [ 1167.25529330844688, 768.03334673245763, 1167.25529330844688, 768.03334673245763 ],
					"source" : [ "obj-257", 0 ]
				}

			}
, 			{
				"patchline" : 				{
					"destination" : [ "obj-289", 0 ],
					"midpoints" : [ 1188.25529330844688, 798.0, 1167.25529330844688, 798.0 ],
					"source" : [ "obj-259", 2 ]
				}

			}
, 			{
				"patchline" : 				{
					"destination" : [ "obj-289", 1 ],
					"midpoints" : [ 1177.75529330844688, 808.0, 1209.25529330844688, 808.0 ],
					"source" : [ "obj-259", 1 ]
				}

			}
, 			{
				"patchline" : 				{
					"destination" : [ "obj-289", 2 ],
					"midpoints" : [ 1167.25529330844688, 808.0, 1251.25529330844688, 808.0 ],
					"source" : [ "obj-259", 0 ]
				}

			}
, 			{
				"patchline" : 				{
					"destination" : [ "obj-41", 0 ],
					"midpoints" : [ 119.163949128062995, 96.0, 119.163949128062995, 96.0 ],
					"source" : [ "obj-260", 0 ]
				}

			}
, 			{
				"patchline" : 				{
					"destination" : [ "obj-5", 0 ],
					"midpoints" : [ 1017.277777777777828, 1068.0, 1263.0, 1068.0, 1263.0, 987.0, 1254.0, 987.0, 1254.0, 828.0, 1352.470751239725814, 828.0 ],
					"source" : [ "obj-27", 0 ]
				}

			}
, 			{
				"patchline" : 				{
					"destination" : [ "obj-284", 0 ],
					"midpoints" : [ 521.480292430768259, 114.0, 498.0, 114.0, 498.0, 15.0, 794.045792292803412, 15.0 ],
					"source" : [ "obj-278", 0 ]
				}

			}
, 			{
				"patchline" : 				{
					"destination" : [ "obj-288", 0 ],
					"midpoints" : [ 584.412494769940622, 57.0, 635.045792292803412, 57.0 ],
					"source" : [ "obj-279", 0 ]
				}

			}
, 			{
				"patchline" : 				{
					"destination" : [ "obj-39", 0 ],
					"midpoints" : [ 569.457480733233524, 573.0, 546.0, 573.0, 546.0, 1059.0, 192.0, 1059.0, 192.0, 1017.0, 132.686024851564866, 1017.0 ],
					"source" : [ "obj-28", 0 ]
				}

			}
, 			{
				"patchline" : 				{
					"destination" : [ "obj-287", 0 ],
					"midpoints" : [ 594.745866160839569, 159.0, 753.0, 159.0, 753.0, 66.0, 794.045792292803412, 66.0 ],
					"source" : [ "obj-281", 0 ]
				}

			}
, 			{
				"patchline" : 				{
					"destination" : [ "obj-278", 0 ],
					"midpoints" : [ 543.412494769940622, 84.0, 521.480292430768259, 84.0 ],
					"source" : [ "obj-282", 2 ]
				}

			}
, 			{
				"patchline" : 				{
					"destination" : [ "obj-281", 0 ],
					"midpoints" : [ 532.412494769940622, 84.0, 498.0, 84.0, 498.0, 120.0, 594.745866160839569, 120.0 ],
					"source" : [ "obj-282", 1 ]
				}

			}
, 			{
				"patchline" : 				{
					"destination" : [ "obj-288", 0 ],
					"midpoints" : [ 554.412494769940622, 84.0, 573.0, 84.0, 573.0, 66.0, 621.0, 66.0, 621.0, 57.0, 635.045792292803412, 57.0 ],
					"source" : [ "obj-282", 3 ]
				}

			}
, 			{
				"patchline" : 				{
					"destination" : [ "obj-295", 0 ],
					"midpoints" : [ 521.412494769940622, 84.0, 498.0, 84.0, 498.0, 120.0, 521.129159272958304, 120.0 ],
					"source" : [ "obj-282", 0 ]
				}

			}
, 			{
				"patchline" : 				{
					"destination" : [ "obj-283", 0 ],
					"midpoints" : [ 834.545792292803412, 69.0, 885.0, 69.0, 885.0, 138.0, 851.545792292803412, 138.0 ],
					"order" : 1,
					"source" : [ "obj-284", 1 ]
				}

			}
, 			{
				"patchline" : 				{
					"destination" : [ "obj-29", 0 ],
					"midpoints" : [ 834.545792292803412, 63.0, 888.0, 63.0, 888.0, 24.0, 1023.745866160839569, 24.0 ],
					"order" : 0,
					"source" : [ "obj-284", 1 ]
				}

			}
, 			{
				"patchline" : 				{
					"destination" : [ "obj-282", 0 ],
					"midpoints" : [ 521.412494769940622, 54.0, 521.412494769940622, 54.0 ],
					"source" : [ "obj-286", 0 ]
				}

			}
, 			{
				"patchline" : 				{
					"destination" : [ "obj-285", 0 ],
					"midpoints" : [ 834.545792292803412, 102.0, 888.0, 102.0, 888.0, 141.0, 917.712492457280518, 141.0 ],
					"source" : [ "obj-287", 1 ]
				}

			}
, 			{
				"patchline" : 				{
					"destination" : [ "obj-284", 0 ],
					"midpoints" : [ 635.045792292803412, 84.0, 771.0, 84.0, 771.0, 33.0, 794.045792292803412, 33.0 ],
					"order" : 2,
					"source" : [ "obj-288", 0 ]
				}

			}
, 			{
				"patchline" : 				{
					"destination" : [ "obj-287", 0 ],
					"midpoints" : [ 635.045792292803412, 84.0, 771.0, 84.0, 771.0, 66.0, 794.045792292803412, 66.0 ],
					"order" : 1,
					"source" : [ "obj-288", 0 ]
				}

			}
, 			{
				"patchline" : 				{
					"destination" : [ "obj-293", 0 ],
					"midpoints" : [ 635.045792292803412, 84.0, 663.0, 84.0, 663.0, 99.0, 794.045792292803412, 99.0 ],
					"order" : 0,
					"source" : [ "obj-288", 0 ]
				}

			}
, 			{
				"patchline" : 				{
					"destination" : [ "obj-67", 0 ],
					"midpoints" : [ 1167.25529330844688, 834.03334673245763, 1166.480305543790109, 834.03334673245763 ],
					"source" : [ "obj-289", 0 ]
				}

			}
, 			{
				"patchline" : 				{
					"destination" : [ "obj-291", 0 ],
					"midpoints" : [ 834.545792292803412, 129.0, 777.0, 129.0, 777.0, 141.0, 776.545792292803412, 141.0 ],
					"order" : 1,
					"source" : [ "obj-293", 1 ]
				}

			}
, 			{
				"patchline" : 				{
					"destination" : [ "obj-44", 0 ],
					"midpoints" : [ 834.545792292803412, 141.0, 999.0, 141.0, 999.0, 177.0, 1023.745866160839569, 177.0 ],
					"order" : 0,
					"source" : [ "obj-293", 1 ]
				}

			}
, 			{
				"patchline" : 				{
					"destination" : [ "obj-293", 0 ],
					"midpoints" : [ 521.129159272958304, 159.0, 753.0, 159.0, 753.0, 99.0, 794.045792292803412, 99.0 ],
					"source" : [ "obj-295", 0 ]
				}

			}
, 			{
				"patchline" : 				{
					"destination" : [ "obj-301", 0 ],
					"source" : [ "obj-298", 0 ]
				}

			}
, 			{
				"patchline" : 				{
					"destination" : [ "obj-11", 0 ],
					"source" : [ "obj-299", 0 ]
				}

			}
, 			{
				"patchline" : 				{
					"destination" : [ "obj-2", 0 ],
					"midpoints" : [ 33.210159808397293, 54.0, 9.0, 54.0, 9.0, 15.0, 285.631640732288361, 15.0 ],
					"order" : 0,
					"source" : [ "obj-300", 0 ]
				}

			}
, 			{
				"patchline" : 				{
					"destination" : [ "obj-298", 0 ],
					"order" : 1,
					"source" : [ "obj-300", 0 ]
				}

			}
, 			{
				"patchline" : 				{
					"destination" : [ "obj-299", 0 ],
					"midpoints" : [ 920.96780464053154, 859.557866089507797, 972.067810773849487, 859.557866089507797 ],
					"source" : [ "obj-302", 0 ]
				}

			}
, 			{
				"patchline" : 				{
					"destination" : [ "obj-318", 0 ],
					"midpoints" : [ 1220.721891645342112, 561.0, 1140.0, 561.0, 1140.0, 552.0, 937.567810773849487, 552.0 ],
					"source" : [ "obj-31", 0 ]
				}

			}
, 			{
				"patchline" : 				{
					"destination" : [ "obj-19", 0 ],
					"midpoints" : [ 825.212458959470155, 477.0, 801.0, 477.0, 801.0, 513.0, 813.545792292803526, 513.0 ],
					"source" : [ "obj-32", 1 ]
				}

			}
, 			{
				"patchline" : 				{
					"destination" : [ "obj-24", 0 ],
					"midpoints" : [ 836.879125626136897, 477.0, 801.0, 477.0, 801.0, 546.0, 813.545792292803526, 546.0 ],
					"source" : [ "obj-32", 2 ]
				}

			}
, 			{
				"patchline" : 				{
					"destination" : [ "obj-6", 0 ],
					"midpoints" : [ 813.545792292803526, 477.0, 813.545792292803526, 477.0 ],
					"source" : [ "obj-32", 0 ]
				}

			}
, 			{
				"patchline" : 				{
					"destination" : [ "obj-318", 0 ],
					"midpoints" : [ 990.318468285635845, 501.0, 918.0, 501.0, 918.0, 567.0, 937.567810773849487, 567.0 ],
					"source" : [ "obj-33", 0 ]
				}

			}
, 			{
				"patchline" : 				{
					"destination" : [ "obj-39", 0 ],
					"midpoints" : [ 569.457480733233524, 405.0, 546.0, 405.0, 546.0, 1059.0, 192.0, 1059.0, 192.0, 1017.0, 132.686024851564866, 1017.0 ],
					"source" : [ "obj-34", 0 ]
				}

			}
, 			{
				"patchline" : 				{
					"destination" : [ "obj-318", 0 ],
					"midpoints" : [ 1115.480305543790109, 549.0, 937.567810773849487, 549.0 ],
					"source" : [ "obj-348", 0 ]
				}

			}
, 			{
				"patchline" : 				{
					"destination" : [ "obj-39", 0 ],
					"midpoints" : [ 569.457480733233524, 783.0, 546.0, 783.0, 546.0, 1059.0, 192.0, 1059.0, 192.0, 1017.0, 132.686024851564866, 1017.0 ],
					"source" : [ "obj-35", 0 ]
				}

			}
, 			{
				"patchline" : 				{
					"destination" : [ "obj-318", 0 ],
					"midpoints" : [ 941.567810773849487, 477.0, 918.0, 477.0, 918.0, 567.0, 937.567810773849487, 567.0 ],
					"source" : [ "obj-351", 0 ]
				}

			}
, 			{
				"patchline" : 				{
					"destination" : [ "obj-25", 0 ],
					"midpoints" : [ 1220.721891645342112, 489.0, 1185.0, 489.0, 1185.0, 420.0, 915.0, 420.0, 915.0, 402.0, 813.545792292803526, 402.0 ],
					"source" : [ "obj-352", 0 ]
				}

			}
, 			{
				"patchline" : 				{
					"destination" : [ "obj-318", 0 ],
					"midpoints" : [ 1037.318468285635845, 501.0, 1083.0, 501.0, 1083.0, 567.0, 937.567810773849487, 567.0 ],
					"source" : [ "obj-36", 0 ]
				}

			}
, 			{
				"patchline" : 				{
					"destination" : [ "obj-318", 0 ],
					"midpoints" : [ 941.567810773849487, 576.0, 937.567810773849487, 576.0 ],
					"source" : [ "obj-37", 0 ]
				}

			}
, 			{
				"patchline" : 				{
					"destination" : [ "obj-318", 0 ],
					"midpoints" : [ 990.318468285635845, 567.0, 937.567810773849487, 567.0 ],
					"source" : [ "obj-38", 0 ]
				}

			}
, 			{
				"patchline" : 				{
					"destination" : [ "obj-22", 1 ],
					"midpoints" : [ 172.686024851564866, 1065.0, 162.186024851564866, 1065.0 ],
					"source" : [ "obj-39", 1 ]
				}

			}
, 			{
				"patchline" : 				{
					"destination" : [ "obj-22", 0 ],
					"midpoints" : [ 132.686024851564866, 1065.0, 151.686024851564866, 1065.0 ],
					"source" : [ "obj-39", 0 ]
				}

			}
, 			{
				"patchline" : 				{
					"destination" : [ "obj-318", 0 ],
					"midpoints" : [ 1037.318468285635845, 567.0, 937.567810773849487, 567.0 ],
					"source" : [ "obj-40", 0 ]
				}

			}
, 			{
				"patchline" : 				{
					"destination" : [ "obj-46", 0 ],
					"midpoints" : [ 45.589637471274273, 465.0, 263.589637471274273, 465.0 ],
					"source" : [ "obj-43", 0 ]
				}

			}
, 			{
				"patchline" : 				{
					"destination" : [ "obj-318", 0 ],
					"midpoints" : [ 1115.480305543790109, 510.0, 1083.0, 510.0, 1083.0, 567.0, 937.567810773849487, 567.0 ],
					"source" : [ "obj-435", 0 ]
				}

			}
, 			{
				"patchline" : 				{
					"destination" : [ "obj-47", 0 ],
					"midpoints" : [ 189.742179823950664, 516.0, 249.0, 516.0, 249.0, 507.0, 263.589637471274273, 507.0 ],
					"source" : [ "obj-45", 0 ]
				}

			}
, 			{
				"patchline" : 				{
					"destination" : [ "obj-47", 1 ],
					"midpoints" : [ 279.589637471274273, 504.0, 274.089637471274273, 504.0 ],
					"source" : [ "obj-46", 1 ]
				}

			}
, 			{
				"patchline" : 				{
					"destination" : [ "obj-47", 0 ],
					"midpoints" : [ 263.589637471274273, 504.0, 263.589637471274273, 504.0 ],
					"source" : [ "obj-46", 0 ]
				}

			}
, 			{
				"patchline" : 				{
					"destination" : [ "obj-5", 0 ],
					"midpoints" : [ 1053.166666666666742, 1068.0, 1263.0, 1068.0, 1263.0, 987.0, 1254.0, 987.0, 1254.0, 828.0, 1352.470751239725814, 828.0 ],
					"source" : [ "obj-48", 0 ]
				}

			}
, 			{
				"patchline" : 				{
					"destination" : [ "obj-22", 0 ],
					"midpoints" : [ 54.513762848540409, 1065.0, 151.686024851564866, 1065.0 ],
					"source" : [ "obj-49", 0 ]
				}

			}
, 			{
				"patchline" : 				{
					"destination" : [ "obj-68", 0 ],
					"midpoints" : [ 937.567810773849487, 636.0, 937.567810773849487, 636.0 ],
					"source" : [ "obj-50", 0 ]
				}

			}
, 			{
				"patchline" : 				{
					"destination" : [ "obj-5", 0 ],
					"midpoints" : [ 1089.055555555555657, 1068.0, 1263.0, 1068.0, 1263.0, 987.0, 1254.0, 987.0, 1254.0, 828.0, 1352.470751239725814, 828.0 ],
					"source" : [ "obj-52", 0 ]
				}

			}
, 			{
				"patchline" : 				{
					"destination" : [ "obj-5", 0 ],
					"midpoints" : [ 1124.944444444444343, 1068.0, 1263.0, 1068.0, 1263.0, 987.0, 1254.0, 987.0, 1254.0, 828.0, 1352.470751239725814, 828.0 ],
					"source" : [ "obj-54", 0 ]
				}

			}
, 			{
				"patchline" : 				{
					"destination" : [ "obj-5", 0 ],
					"midpoints" : [ 1160.833333333333258, 1068.0, 1263.0, 1068.0, 1263.0, 987.0, 1254.0, 987.0, 1254.0, 828.0, 1352.470751239725814, 828.0 ],
					"source" : [ "obj-56", 0 ]
				}

			}
, 			{
				"patchline" : 				{
					"destination" : [ "obj-5", 0 ],
					"midpoints" : [ 1196.722222222222172, 1068.0, 1263.0, 1068.0, 1263.0, 987.0, 1254.0, 987.0, 1254.0, 828.0, 1352.470751239725814, 828.0 ],
					"source" : [ "obj-58", 0 ]
				}

			}
, 			{
				"patchline" : 				{
					"destination" : [ "obj-28", 0 ],
					"midpoints" : [ 813.545792292803526, 513.0, 786.0, 513.0, 786.0, 405.0, 546.0, 405.0, 546.0, 438.0, 569.457480733233524, 438.0 ],
					"source" : [ "obj-6", 0 ]
				}

			}
, 			{
				"patchline" : 				{
					"destination" : [ "obj-5", 0 ],
					"midpoints" : [ 1232.611111111111086, 1059.0, 1263.0, 1059.0, 1263.0, 987.0, 1254.0, 987.0, 1254.0, 828.0, 1352.470751239725814, 828.0 ],
					"source" : [ "obj-60", 0 ]
				}

			}
, 			{
				"patchline" : 				{
					"destination" : [ "obj-43", 0 ],
					"midpoints" : [ 45.589637471274273, 234.0, 45.589637471274273, 234.0 ],
					"source" : [ "obj-61", 0 ]
				}

			}
, 			{
				"patchline" : 				{
					"destination" : [ "obj-318", 0 ],
					"midpoints" : [ 1115.480305543790109, 579.0, 1101.0, 579.0, 1101.0, 567.0, 937.567810773849487, 567.0 ],
					"source" : [ "obj-64", 0 ]
				}

			}
, 			{
				"patchline" : 				{
					"destination" : [ "obj-66", 0 ],
					"midpoints" : [ 985.067810773849487, 768.0, 985.067810773849487, 768.0 ],
					"source" : [ "obj-65", 0 ]
				}

			}
, 			{
				"patchline" : 				{
					"destination" : [ "obj-136", 0 ],
					"midpoints" : [ 996.067810773849487, 804.0, 985.067810773849487, 804.0 ],
					"source" : [ "obj-66", 1 ]
				}

			}
, 			{
				"patchline" : 				{
					"destination" : [ "obj-136", 1 ],
					"midpoints" : [ 985.067810773849487, 798.0, 1069.067810773849487, 798.0 ],
					"source" : [ "obj-66", 0 ]
				}

			}
, 			{
				"patchline" : 				{
					"destination" : [ "obj-216", 1 ],
					"source" : [ "obj-67", 1 ]
				}

			}
, 			{
				"patchline" : 				{
					"destination" : [ "obj-216", 1 ],
					"source" : [ "obj-67", 0 ]
				}

			}
, 			{
				"patchline" : 				{
					"destination" : [ "obj-69", 0 ],
					"midpoints" : [ 937.567810773849487, 663.0, 937.567810773849487, 663.0 ],
					"source" : [ "obj-68", 0 ]
				}

			}
, 			{
				"patchline" : 				{
					"destination" : [ "obj-73", 0 ],
					"midpoints" : [ 305.28057705735182, 144.0, 305.28057705735182, 144.0 ],
					"source" : [ "obj-72", 0 ]
				}

			}
, 			{
				"patchline" : 				{
					"destination" : [ "obj-70", 0 ],
					"midpoints" : [ 305.28057705735182, 165.0, 305.28057705735182, 165.0 ],
					"source" : [ "obj-73", 0 ]
				}

			}
, 			{
				"patchline" : 				{
					"destination" : [ "obj-28", 0 ],
					"midpoints" : [ 569.457480733233524, 444.0, 569.457480733233524, 444.0 ],
					"source" : [ "obj-81", 0 ]
				}

			}
, 			{
				"patchline" : 				{
					"destination" : [ "obj-39", 0 ],
					"midpoints" : [ 569.457480733233524, 1059.0, 192.0, 1059.0, 192.0, 1017.0, 132.686024851564866, 1017.0 ],
					"source" : [ "obj-83", 0 ]
				}

			}
, 			{
				"patchline" : 				{
					"destination" : [ "obj-83", 0 ],
					"midpoints" : [ 569.457480733233524, 822.0, 569.457480733233524, 822.0 ],
					"source" : [ "obj-86", 0 ]
				}

			}
, 			{
				"patchline" : 				{
					"destination" : [ "obj-39", 0 ],
					"midpoints" : [ 942.855555100987658, 441.0, 915.0, 441.0, 915.0, 795.0, 870.0, 795.0, 870.0, 1059.0, 192.0, 1059.0, 192.0, 1017.0, 132.686024851564866, 1017.0 ],
					"source" : [ "obj-87", 0 ]
				}

			}
, 			{
				"patchline" : 				{
					"destination" : [ "obj-87", 0 ],
					"midpoints" : [ 942.855555100987658, 234.0, 942.855555100987658, 234.0 ],
					"source" : [ "obj-89", 0 ]
				}

			}
, 			{
				"patchline" : 				{
					"destination" : [ "obj-39", 0 ],
					"midpoints" : [ 54.513762848540409, 798.0, 27.0, 798.0, 27.0, 1017.0, 132.686024851564866, 1017.0 ],
					"source" : [ "obj-91", 0 ]
				}

			}
, 			{
				"patchline" : 				{
					"destination" : [ "obj-91", 0 ],
					"midpoints" : [ 54.513762848540409, 537.0, 54.513762848540409, 537.0 ],
					"source" : [ "obj-93", 0 ]
				}

			}
, 			{
				"patchline" : 				{
					"destination" : [ "obj-39", 0 ],
					"midpoints" : [ 54.513762848540409, 954.0, 132.686024851564866, 954.0 ],
					"source" : [ "obj-94", 0 ]
				}

			}
, 			{
				"patchline" : 				{
					"destination" : [ "obj-94", 0 ],
					"midpoints" : [ 51.481940421674608, 837.0, 54.513762848540409, 837.0 ],
					"source" : [ "obj-96", 0 ]
				}

			}
, 			{
				"patchline" : 				{
					"destination" : [ "obj-34", 0 ],
					"midpoints" : [ 569.457480733233524, 234.0, 569.457480733233524, 234.0 ],
					"source" : [ "obj-99", 0 ]
				}

			}
 ],
		"dependency_cache" : [ 			{
				"name" : "adsrFaders.maxpat",
				"bootpath" : "~/Documents/GitHub/q1synth/ensemble_patches/children",
				"patcherrelativepath" : ".",
				"type" : "JSON",
				"implicit" : 1
			}
, 			{
				"name" : "dialCC.maxpat",
				"bootpath" : "~/Documents/GitHub/q1synth/ensemble_patches/children",
				"patcherrelativepath" : ".",
				"type" : "JSON",
				"implicit" : 1
			}
, 			{
				"name" : "effectFaders.maxpat",
				"bootpath" : "~/Documents/GitHub/q1synth/ensemble_patches/children",
				"patcherrelativepath" : ".",
				"type" : "JSON",
				"implicit" : 1
			}
, 			{
				"name" : "instrumentFaders.maxpat",
				"bootpath" : "~/Documents/GitHub/q1synth/ensemble_patches/children",
				"patcherrelativepath" : ".",
				"type" : "JSON",
				"implicit" : 1
			}
, 			{
				"name" : "noteFaders.maxpat",
				"bootpath" : "~/Documents/GitHub/q1synth/ensemble_patches/children",
				"patcherrelativepath" : ".",
				"type" : "JSON",
				"implicit" : 1
			}
, 			{
				"name" : "notebangCC.maxpat",
				"bootpath" : "~/Documents/GitHub/q1synth/ensemble_patches/children",
				"patcherrelativepath" : ".",
				"type" : "JSON",
				"implicit" : 1
			}
, 			{
				"name" : "noteonCC.maxpat",
				"bootpath" : "~/Documents/GitHub/q1synth/ensemble_patches/children",
				"patcherrelativepath" : ".",
				"type" : "JSON",
				"implicit" : 1
			}
, 			{
				"name" : "playstopBangs.maxpat",
				"bootpath" : "~/Documents/GitHub/q1synth/ensemble_patches/children",
				"patcherrelativepath" : ".",
				"type" : "JSON",
				"implicit" : 1
			}
, 			{
				"name" : "presetBangs.maxpat",
				"bootpath" : "~/Documents/GitHub/q1synth/ensemble_patches/children",
				"patcherrelativepath" : ".",
				"type" : "JSON",
				"implicit" : 1
			}
, 			{
				"name" : "q1synthMIDIcustomMapping.json",
				"bootpath" : "~/Documents/GitHub/q1synth/ensemble_patches/children",
				"patcherrelativepath" : ".",
				"type" : "JSON",
				"implicit" : 1
			}
, 			{
				"name" : "ringFaders.maxpat",
				"bootpath" : "~/Documents/GitHub/q1synth/ensemble_patches/children",
				"patcherrelativepath" : ".",
				"type" : "JSON",
				"implicit" : 1
			}
, 			{
				"name" : "sphereFaders.maxpat",
				"bootpath" : "~/Documents/GitHub/q1synth/ensemble_patches/children",
				"patcherrelativepath" : ".",
				"type" : "JSON",
				"implicit" : 1
			}
 ],
		"autosave" : 0,
		"bgcolor" : [ 0.815686274509804, 0.815686274509804, 0.815686274509804, 1.0 ]
	}

}
